G04 #@! TF.FileFunction,Soldermask,Top*
%FSLAX46Y46*%
G04 Gerber Fmt 4.6, Leading zero omitted, Abs format (unit mm)*
G04 Created by KiCad (PCBNEW 4.0.7) date Tue Nov 21 09:12:45 2017*
%MOMM*%
%LPD*%
G01*
G04 APERTURE LIST*
%ADD10C,0.100000*%
G04 APERTURE END LIST*
D10*
G36*
X135050000Y-108400000D02*
X133850000Y-108400000D01*
X133850000Y-107500000D01*
X135050000Y-107500000D01*
X135050000Y-108400000D01*
X135050000Y-108400000D01*
G37*
G36*
X132850000Y-108400000D02*
X131650000Y-108400000D01*
X131650000Y-107500000D01*
X132850000Y-107500000D01*
X132850000Y-108400000D01*
X132850000Y-108400000D01*
G37*
G36*
X111990000Y-106710000D02*
X110490000Y-106710000D01*
X110490000Y-105922700D01*
X110489497Y-105919162D01*
X110488029Y-105915904D01*
X110485710Y-105913184D01*
X110482726Y-105911218D01*
X110479313Y-105910160D01*
X110477300Y-105910000D01*
X106290000Y-105910000D01*
X106290000Y-105210000D01*
X111990000Y-105210000D01*
X111990000Y-106710000D01*
X111990000Y-106710000D01*
G37*
G36*
X165490000Y-105910000D02*
X161302700Y-105910000D01*
X161299162Y-105910503D01*
X161295904Y-105911971D01*
X161293184Y-105914290D01*
X161291218Y-105917274D01*
X161290160Y-105920687D01*
X161290000Y-105922700D01*
X161290000Y-106710000D01*
X159790000Y-106710000D01*
X159790000Y-105210000D01*
X165490000Y-105210000D01*
X165490000Y-105910000D01*
X165490000Y-105910000D01*
G37*
G36*
X137096500Y-105029000D02*
X135953500Y-105029000D01*
X135953500Y-104521000D01*
X137096500Y-104521000D01*
X137096500Y-105029000D01*
X137096500Y-105029000D01*
G37*
G36*
X130746500Y-105029000D02*
X129603500Y-105029000D01*
X129603500Y-104521000D01*
X130746500Y-104521000D01*
X130746500Y-105029000D01*
X130746500Y-105029000D01*
G37*
G36*
X162290000Y-104860000D02*
X159290000Y-104860000D01*
X159290000Y-104260000D01*
X162290000Y-104260000D01*
X162290000Y-104860000D01*
X162290000Y-104860000D01*
G37*
G36*
X112490000Y-104860000D02*
X109490000Y-104860000D01*
X109490000Y-104260000D01*
X112490000Y-104260000D01*
X112490000Y-104860000D01*
X112490000Y-104860000D01*
G37*
G36*
X112490000Y-103860000D02*
X109490000Y-103860000D01*
X109490000Y-103260000D01*
X112490000Y-103260000D01*
X112490000Y-103860000D01*
X112490000Y-103860000D01*
G37*
G36*
X162290000Y-103860000D02*
X159290000Y-103860000D01*
X159290000Y-103260000D01*
X162290000Y-103260000D01*
X162290000Y-103860000D01*
X162290000Y-103860000D01*
G37*
G36*
X137096500Y-103759000D02*
X135953500Y-103759000D01*
X135953500Y-103251000D01*
X137096500Y-103251000D01*
X137096500Y-103759000D01*
X137096500Y-103759000D01*
G37*
G36*
X130746500Y-103759000D02*
X129603500Y-103759000D01*
X129603500Y-103251000D01*
X130746500Y-103251000D01*
X130746500Y-103759000D01*
X130746500Y-103759000D01*
G37*
G36*
X112490000Y-102860000D02*
X109490000Y-102860000D01*
X109490000Y-102260000D01*
X112490000Y-102260000D01*
X112490000Y-102860000D01*
X112490000Y-102860000D01*
G37*
G36*
X162290000Y-102860000D02*
X159290000Y-102860000D01*
X159290000Y-102260000D01*
X162290000Y-102260000D01*
X162290000Y-102860000D01*
X162290000Y-102860000D01*
G37*
G36*
X130746500Y-102489000D02*
X129603500Y-102489000D01*
X129603500Y-101981000D01*
X130746500Y-101981000D01*
X130746500Y-102489000D01*
X130746500Y-102489000D01*
G37*
G36*
X137096500Y-102489000D02*
X135953500Y-102489000D01*
X135953500Y-101981000D01*
X137096500Y-101981000D01*
X137096500Y-102489000D01*
X137096500Y-102489000D01*
G37*
G36*
X112490000Y-101860000D02*
X109490000Y-101860000D01*
X109490000Y-101260000D01*
X112490000Y-101260000D01*
X112490000Y-101860000D01*
X112490000Y-101860000D01*
G37*
G36*
X162290000Y-101860000D02*
X159290000Y-101860000D01*
X159290000Y-101260000D01*
X162290000Y-101260000D01*
X162290000Y-101860000D01*
X162290000Y-101860000D01*
G37*
G36*
X130746500Y-101219000D02*
X129603500Y-101219000D01*
X129603500Y-100711000D01*
X130746500Y-100711000D01*
X130746500Y-101219000D01*
X130746500Y-101219000D01*
G37*
G36*
X137096500Y-101219000D02*
X135953500Y-101219000D01*
X135953500Y-100711000D01*
X137096500Y-100711000D01*
X137096500Y-101219000D01*
X137096500Y-101219000D01*
G37*
G36*
X162290000Y-100860000D02*
X159290000Y-100860000D01*
X159290000Y-100260000D01*
X162290000Y-100260000D01*
X162290000Y-100860000D01*
X162290000Y-100860000D01*
G37*
G36*
X112490000Y-100860000D02*
X109490000Y-100860000D01*
X109490000Y-100260000D01*
X112490000Y-100260000D01*
X112490000Y-100860000D01*
X112490000Y-100860000D01*
G37*
G36*
X130746500Y-99949000D02*
X129603500Y-99949000D01*
X129603500Y-99441000D01*
X130746500Y-99441000D01*
X130746500Y-99949000D01*
X130746500Y-99949000D01*
G37*
G36*
X137096500Y-99949000D02*
X135953500Y-99949000D01*
X135953500Y-99441000D01*
X137096500Y-99441000D01*
X137096500Y-99949000D01*
X137096500Y-99949000D01*
G37*
G36*
X112490000Y-99860000D02*
X109490000Y-99860000D01*
X109490000Y-99260000D01*
X112490000Y-99260000D01*
X112490000Y-99860000D01*
X112490000Y-99860000D01*
G37*
G36*
X162290000Y-99860000D02*
X159290000Y-99860000D01*
X159290000Y-99260000D01*
X162290000Y-99260000D01*
X162290000Y-99860000D01*
X162290000Y-99860000D01*
G37*
G36*
X112490000Y-98860000D02*
X109490000Y-98860000D01*
X109490000Y-98260000D01*
X112490000Y-98260000D01*
X112490000Y-98860000D01*
X112490000Y-98860000D01*
G37*
G36*
X162290000Y-98860000D02*
X159290000Y-98860000D01*
X159290000Y-98260000D01*
X162290000Y-98260000D01*
X162290000Y-98860000D01*
X162290000Y-98860000D01*
G37*
G36*
X137096500Y-98679000D02*
X135953500Y-98679000D01*
X135953500Y-98171000D01*
X137096500Y-98171000D01*
X137096500Y-98679000D01*
X137096500Y-98679000D01*
G37*
G36*
X130746500Y-98679000D02*
X129603500Y-98679000D01*
X129603500Y-98171000D01*
X130746500Y-98171000D01*
X130746500Y-98679000D01*
X130746500Y-98679000D01*
G37*
G36*
X112490000Y-97860000D02*
X109490000Y-97860000D01*
X109490000Y-97260000D01*
X112490000Y-97260000D01*
X112490000Y-97860000D01*
X112490000Y-97860000D01*
G37*
G36*
X162290000Y-97860000D02*
X159290000Y-97860000D01*
X159290000Y-97260000D01*
X162290000Y-97260000D01*
X162290000Y-97860000D01*
X162290000Y-97860000D01*
G37*
G36*
X137096500Y-97409000D02*
X135953500Y-97409000D01*
X135953500Y-96901000D01*
X137096500Y-96901000D01*
X137096500Y-97409000D01*
X137096500Y-97409000D01*
G37*
G36*
X130746500Y-97409000D02*
X129603500Y-97409000D01*
X129603500Y-96901000D01*
X130746500Y-96901000D01*
X130746500Y-97409000D01*
X130746500Y-97409000D01*
G37*
G36*
X138880000Y-96950000D02*
X137980000Y-96950000D01*
X137980000Y-95750000D01*
X138880000Y-95750000D01*
X138880000Y-96950000D01*
X138880000Y-96950000D01*
G37*
G36*
X162290000Y-96860000D02*
X159290000Y-96860000D01*
X159290000Y-96260000D01*
X162290000Y-96260000D01*
X162290000Y-96860000D01*
X162290000Y-96860000D01*
G37*
G36*
X112490000Y-96860000D02*
X109490000Y-96860000D01*
X109490000Y-96260000D01*
X112490000Y-96260000D01*
X112490000Y-96860000D01*
X112490000Y-96860000D01*
G37*
G36*
X137096500Y-96139000D02*
X135953500Y-96139000D01*
X135953500Y-95631000D01*
X137096500Y-95631000D01*
X137096500Y-96139000D01*
X137096500Y-96139000D01*
G37*
G36*
X130746500Y-96139000D02*
X129603500Y-96139000D01*
X129603500Y-95631000D01*
X130746500Y-95631000D01*
X130746500Y-96139000D01*
X130746500Y-96139000D01*
G37*
G36*
X162290000Y-95860000D02*
X159290000Y-95860000D01*
X159290000Y-95260000D01*
X162290000Y-95260000D01*
X162290000Y-95860000D01*
X162290000Y-95860000D01*
G37*
G36*
X112490000Y-95860000D02*
X109490000Y-95860000D01*
X109490000Y-95260000D01*
X112490000Y-95260000D01*
X112490000Y-95860000D01*
X112490000Y-95860000D01*
G37*
G36*
X162290000Y-94860000D02*
X159290000Y-94860000D01*
X159290000Y-94260000D01*
X162290000Y-94260000D01*
X162290000Y-94860000D01*
X162290000Y-94860000D01*
G37*
G36*
X112490000Y-94860000D02*
X109490000Y-94860000D01*
X109490000Y-94260000D01*
X112490000Y-94260000D01*
X112490000Y-94860000D01*
X112490000Y-94860000D01*
G37*
G36*
X138880000Y-94750000D02*
X137980000Y-94750000D01*
X137980000Y-93550000D01*
X138880000Y-93550000D01*
X138880000Y-94750000D01*
X138880000Y-94750000D01*
G37*
G36*
X112490000Y-93860000D02*
X109490000Y-93860000D01*
X109490000Y-93260000D01*
X112490000Y-93260000D01*
X112490000Y-93860000D01*
X112490000Y-93860000D01*
G37*
G36*
X162290000Y-93860000D02*
X159290000Y-93860000D01*
X159290000Y-93260000D01*
X162290000Y-93260000D01*
X162290000Y-93860000D01*
X162290000Y-93860000D01*
G37*
G36*
X134900000Y-93085000D02*
X133700000Y-93085000D01*
X133700000Y-92335000D01*
X134900000Y-92335000D01*
X134900000Y-93085000D01*
X134900000Y-93085000D01*
G37*
G36*
X133000000Y-93085000D02*
X131800000Y-93085000D01*
X131800000Y-92335000D01*
X133000000Y-92335000D01*
X133000000Y-93085000D01*
X133000000Y-93085000D01*
G37*
G36*
X161290000Y-92197300D02*
X161290503Y-92200838D01*
X161291971Y-92204096D01*
X161294290Y-92206816D01*
X161297274Y-92208782D01*
X161300687Y-92209840D01*
X161302700Y-92210000D01*
X165490000Y-92210000D01*
X165490000Y-92910000D01*
X159790000Y-92910000D01*
X159790000Y-91410000D01*
X161290000Y-91410000D01*
X161290000Y-92197300D01*
X161290000Y-92197300D01*
G37*
G36*
X111990000Y-92910000D02*
X106290000Y-92910000D01*
X106290000Y-92210000D01*
X110477300Y-92210000D01*
X110480838Y-92209497D01*
X110484096Y-92208029D01*
X110486816Y-92205710D01*
X110488782Y-92202726D01*
X110489840Y-92199313D01*
X110490000Y-92197300D01*
X110490000Y-91410000D01*
X111990000Y-91410000D01*
X111990000Y-92910000D01*
X111990000Y-92910000D01*
G37*
G36*
X161720000Y-88080000D02*
X160520000Y-88080000D01*
X160520000Y-87180000D01*
X161720000Y-87180000D01*
X161720000Y-88080000D01*
X161720000Y-88080000D01*
G37*
G36*
X159520000Y-88080000D02*
X158320000Y-88080000D01*
X158320000Y-87180000D01*
X159520000Y-87180000D01*
X159520000Y-88080000D01*
X159520000Y-88080000D01*
G37*
G36*
X117710000Y-85290000D02*
X115810000Y-85290000D01*
X115810000Y-82790000D01*
X117710000Y-82790000D01*
X117710000Y-85290000D01*
X117710000Y-85290000D01*
G37*
G36*
X111740000Y-85290000D02*
X109840000Y-85290000D01*
X109840000Y-82790000D01*
X111740000Y-82790000D01*
X111740000Y-85290000D01*
X111740000Y-85290000D01*
G37*
G36*
X130746500Y-84709000D02*
X129603500Y-84709000D01*
X129603500Y-84201000D01*
X130746500Y-84201000D01*
X130746500Y-84709000D01*
X130746500Y-84709000D01*
G37*
G36*
X137096500Y-84709000D02*
X135953500Y-84709000D01*
X135953500Y-84201000D01*
X137096500Y-84201000D01*
X137096500Y-84709000D01*
X137096500Y-84709000D01*
G37*
G36*
X161460901Y-82983245D02*
X161460908Y-82983247D01*
X161460916Y-82983248D01*
X161619388Y-83032303D01*
X161765314Y-83111205D01*
X161893135Y-83216948D01*
X161997983Y-83345504D01*
X162075864Y-83491977D01*
X162123812Y-83650788D01*
X162140000Y-83815887D01*
X162140000Y-83824113D01*
X162139917Y-83835981D01*
X162121425Y-84000838D01*
X162071265Y-84158964D01*
X161991346Y-84304335D01*
X161884714Y-84431415D01*
X161755429Y-84535363D01*
X161608416Y-84612219D01*
X161449274Y-84659057D01*
X161449266Y-84659058D01*
X161449265Y-84659058D01*
X161394414Y-84664050D01*
X161284066Y-84674092D01*
X161284062Y-84674092D01*
X161119099Y-84656755D01*
X161119092Y-84656753D01*
X161119084Y-84656752D01*
X160960612Y-84607697D01*
X160814686Y-84528795D01*
X160686865Y-84423052D01*
X160582017Y-84294496D01*
X160504136Y-84148023D01*
X160456188Y-83989212D01*
X160440000Y-83824113D01*
X160440000Y-83815887D01*
X160440083Y-83804019D01*
X160458575Y-83639162D01*
X160508735Y-83481036D01*
X160588654Y-83335665D01*
X160695286Y-83208585D01*
X160824571Y-83104637D01*
X160971584Y-83027781D01*
X161130726Y-82980943D01*
X161130734Y-82980942D01*
X161130735Y-82980942D01*
X161185586Y-82975950D01*
X161295936Y-82965908D01*
X161295938Y-82965908D01*
X161460901Y-82983245D01*
X161460901Y-82983245D01*
G37*
G36*
X164000901Y-82983245D02*
X164000908Y-82983247D01*
X164000916Y-82983248D01*
X164159388Y-83032303D01*
X164305314Y-83111205D01*
X164433135Y-83216948D01*
X164537983Y-83345504D01*
X164615864Y-83491977D01*
X164663812Y-83650788D01*
X164680000Y-83815887D01*
X164680000Y-83824113D01*
X164679917Y-83835981D01*
X164661425Y-84000838D01*
X164611265Y-84158964D01*
X164531346Y-84304335D01*
X164424714Y-84431415D01*
X164295429Y-84535363D01*
X164148416Y-84612219D01*
X163989274Y-84659057D01*
X163989266Y-84659058D01*
X163989265Y-84659058D01*
X163934414Y-84664050D01*
X163824066Y-84674092D01*
X163824062Y-84674092D01*
X163659099Y-84656755D01*
X163659092Y-84656753D01*
X163659084Y-84656752D01*
X163500612Y-84607697D01*
X163354686Y-84528795D01*
X163226865Y-84423052D01*
X163122017Y-84294496D01*
X163044136Y-84148023D01*
X162996188Y-83989212D01*
X162980000Y-83824113D01*
X162980000Y-83815887D01*
X162980083Y-83804019D01*
X162998575Y-83639162D01*
X163048735Y-83481036D01*
X163128654Y-83335665D01*
X163235286Y-83208585D01*
X163364571Y-83104637D01*
X163511584Y-83027781D01*
X163670726Y-82980943D01*
X163670734Y-82980942D01*
X163670735Y-82980942D01*
X163725586Y-82975950D01*
X163835936Y-82965908D01*
X163835938Y-82965908D01*
X164000901Y-82983245D01*
X164000901Y-82983245D01*
G37*
G36*
X159600000Y-84670000D02*
X157900000Y-84670000D01*
X157900000Y-82970000D01*
X159600000Y-82970000D01*
X159600000Y-84670000D01*
X159600000Y-84670000D01*
G37*
G36*
X137096500Y-83439000D02*
X135953500Y-83439000D01*
X135953500Y-82931000D01*
X137096500Y-82931000D01*
X137096500Y-83439000D01*
X137096500Y-83439000D01*
G37*
G36*
X130746500Y-83439000D02*
X129603500Y-83439000D01*
X129603500Y-82931000D01*
X130746500Y-82931000D01*
X130746500Y-83439000D01*
X130746500Y-83439000D01*
G37*
G36*
X107890000Y-82990000D02*
X105890000Y-82990000D01*
X105890000Y-81990000D01*
X107890000Y-81990000D01*
X107890000Y-82990000D01*
X107890000Y-82990000D01*
G37*
G36*
X137096500Y-82169000D02*
X135953500Y-82169000D01*
X135953500Y-81661000D01*
X137096500Y-81661000D01*
X137096500Y-82169000D01*
X137096500Y-82169000D01*
G37*
G36*
X130746500Y-82169000D02*
X129603500Y-82169000D01*
X129603500Y-81661000D01*
X130746500Y-81661000D01*
X130746500Y-82169000D01*
X130746500Y-82169000D01*
G37*
G36*
X137096500Y-80899000D02*
X135953500Y-80899000D01*
X135953500Y-80391000D01*
X137096500Y-80391000D01*
X137096500Y-80899000D01*
X137096500Y-80899000D01*
G37*
G36*
X130746500Y-80899000D02*
X129603500Y-80899000D01*
X129603500Y-80391000D01*
X130746500Y-80391000D01*
X130746500Y-80899000D01*
X130746500Y-80899000D01*
G37*
G36*
X137096500Y-79629000D02*
X135953500Y-79629000D01*
X135953500Y-79121000D01*
X137096500Y-79121000D01*
X137096500Y-79629000D01*
X137096500Y-79629000D01*
G37*
G36*
X130746500Y-79629000D02*
X129603500Y-79629000D01*
X129603500Y-79121000D01*
X130746500Y-79121000D01*
X130746500Y-79629000D01*
X130746500Y-79629000D01*
G37*
G36*
X107890000Y-79290000D02*
X105890000Y-79290000D01*
X105890000Y-78290000D01*
X107890000Y-78290000D01*
X107890000Y-79290000D01*
X107890000Y-79290000D01*
G37*
G36*
X130746500Y-78359000D02*
X129603500Y-78359000D01*
X129603500Y-77851000D01*
X130746500Y-77851000D01*
X130746500Y-78359000D01*
X130746500Y-78359000D01*
G37*
G36*
X137096500Y-78359000D02*
X135953500Y-78359000D01*
X135953500Y-77851000D01*
X137096500Y-77851000D01*
X137096500Y-78359000D01*
X137096500Y-78359000D01*
G37*
G36*
X155370000Y-77920000D02*
X154170000Y-77920000D01*
X154170000Y-77020000D01*
X155370000Y-77020000D01*
X155370000Y-77920000D01*
X155370000Y-77920000D01*
G37*
G36*
X153170000Y-77920000D02*
X151970000Y-77920000D01*
X151970000Y-77020000D01*
X153170000Y-77020000D01*
X153170000Y-77920000D01*
X153170000Y-77920000D01*
G37*
G36*
X150290000Y-77920000D02*
X149090000Y-77920000D01*
X149090000Y-77020000D01*
X150290000Y-77020000D01*
X150290000Y-77920000D01*
X150290000Y-77920000D01*
G37*
G36*
X148090000Y-77920000D02*
X146890000Y-77920000D01*
X146890000Y-77020000D01*
X148090000Y-77020000D01*
X148090000Y-77920000D01*
X148090000Y-77920000D01*
G37*
G36*
X130746500Y-77089000D02*
X129603500Y-77089000D01*
X129603500Y-76581000D01*
X130746500Y-76581000D01*
X130746500Y-77089000D01*
X130746500Y-77089000D01*
G37*
G36*
X137096500Y-77089000D02*
X135953500Y-77089000D01*
X135953500Y-76581000D01*
X137096500Y-76581000D01*
X137096500Y-77089000D01*
X137096500Y-77089000D01*
G37*
G36*
X130746500Y-75819000D02*
X129603500Y-75819000D01*
X129603500Y-75311000D01*
X130746500Y-75311000D01*
X130746500Y-75819000D01*
X130746500Y-75819000D01*
G37*
G36*
X137096500Y-75819000D02*
X135953500Y-75819000D01*
X135953500Y-75311000D01*
X137096500Y-75311000D01*
X137096500Y-75819000D01*
X137096500Y-75819000D01*
G37*
G36*
X122295000Y-75210000D02*
X121545000Y-75210000D01*
X121545000Y-74010000D01*
X122295000Y-74010000D01*
X122295000Y-75210000D01*
X122295000Y-75210000D01*
G37*
G36*
X155370000Y-74110000D02*
X154170000Y-74110000D01*
X154170000Y-73210000D01*
X155370000Y-73210000D01*
X155370000Y-74110000D01*
X155370000Y-74110000D01*
G37*
G36*
X153170000Y-74110000D02*
X151970000Y-74110000D01*
X151970000Y-73210000D01*
X153170000Y-73210000D01*
X153170000Y-74110000D01*
X153170000Y-74110000D01*
G37*
G36*
X150290000Y-74110000D02*
X149090000Y-74110000D01*
X149090000Y-73210000D01*
X150290000Y-73210000D01*
X150290000Y-74110000D01*
X150290000Y-74110000D01*
G37*
G36*
X148090000Y-74110000D02*
X146890000Y-74110000D01*
X146890000Y-73210000D01*
X148090000Y-73210000D01*
X148090000Y-74110000D01*
X148090000Y-74110000D01*
G37*
G36*
X120700000Y-73890000D02*
X118200000Y-73890000D01*
X118200000Y-72090000D01*
X120700000Y-72090000D01*
X120700000Y-73890000D01*
X120700000Y-73890000D01*
G37*
G36*
X108240000Y-73440000D02*
X105740000Y-73440000D01*
X105740000Y-72090000D01*
X108240000Y-72090000D01*
X108240000Y-73440000D01*
X108240000Y-73440000D01*
G37*
G36*
X122295000Y-73310000D02*
X121545000Y-73310000D01*
X121545000Y-72110000D01*
X122295000Y-72110000D01*
X122295000Y-73310000D01*
X122295000Y-73310000D01*
G37*
G36*
X115855000Y-73190000D02*
X115005000Y-73190000D01*
X115005000Y-72090000D01*
X115855000Y-72090000D01*
X115855000Y-73190000D01*
X115855000Y-73190000D01*
G37*
G36*
X117950000Y-73190000D02*
X117200000Y-73190000D01*
X117200000Y-72090000D01*
X117950000Y-72090000D01*
X117950000Y-73190000D01*
X117950000Y-73190000D01*
G37*
G36*
X116955000Y-73190000D02*
X116105000Y-73190000D01*
X116105000Y-72090000D01*
X116955000Y-72090000D01*
X116955000Y-73190000D01*
X116955000Y-73190000D01*
G37*
G36*
X114755000Y-73190000D02*
X113905000Y-73190000D01*
X113905000Y-72090000D01*
X114755000Y-72090000D01*
X114755000Y-73190000D01*
X114755000Y-73190000D01*
G37*
G36*
X111455000Y-73190000D02*
X110605000Y-73190000D01*
X110605000Y-72090000D01*
X111455000Y-72090000D01*
X111455000Y-73190000D01*
X111455000Y-73190000D01*
G37*
G36*
X110350000Y-73190000D02*
X109500000Y-73190000D01*
X109500000Y-72090000D01*
X110350000Y-72090000D01*
X110350000Y-73190000D01*
X110350000Y-73190000D01*
G37*
G36*
X113655000Y-73190000D02*
X112805000Y-73190000D01*
X112805000Y-72090000D01*
X113655000Y-72090000D01*
X113655000Y-73190000D01*
X113655000Y-73190000D01*
G37*
G36*
X112555000Y-73190000D02*
X111705000Y-73190000D01*
X111705000Y-72090000D01*
X112555000Y-72090000D01*
X112555000Y-73190000D01*
X112555000Y-73190000D01*
G37*
G36*
X134900000Y-72765000D02*
X133700000Y-72765000D01*
X133700000Y-72015000D01*
X134900000Y-72015000D01*
X134900000Y-72765000D01*
X134900000Y-72765000D01*
G37*
G36*
X133000000Y-72765000D02*
X131800000Y-72765000D01*
X131800000Y-72015000D01*
X133000000Y-72015000D01*
X133000000Y-72765000D01*
X133000000Y-72765000D01*
G37*
M02*
