G04 #@! TF.FileFunction,Copper,L2,Bot,Signal*
%FSLAX46Y46*%
G04 Gerber Fmt 4.6, Leading zero omitted, Abs format (unit mm)*
G04 Created by KiCad (PCBNEW 4.0.7) date Thu Nov 23 12:59:31 2017*
%MOMM*%
%LPD*%
G01*
G04 APERTURE LIST*
%ADD10C,0.100000*%
%ADD11C,4.572000*%
%ADD12R,1.700000X1.700000*%
%ADD13O,1.700000X1.700000*%
%ADD14C,0.600000*%
%ADD15C,0.900000*%
%ADD16C,0.250000*%
%ADD17C,0.635000*%
%ADD18C,0.254000*%
G04 APERTURE END LIST*
D10*
D11*
X182245000Y-73660000D03*
X182245000Y-115570000D03*
X116205000Y-118745000D03*
D12*
X113665000Y-76835000D03*
D13*
X113665000Y-79375000D03*
X113665000Y-81915000D03*
D11*
X116205000Y-70485000D03*
D14*
X165735000Y-108585000D03*
X172085000Y-108585000D03*
X175895000Y-120015000D03*
X175895000Y-113665000D03*
X175895000Y-109855000D03*
D15*
X165354000Y-118618000D03*
X148590000Y-100965000D03*
X140970000Y-94615000D03*
X150495000Y-85725000D03*
X146050000Y-81915000D03*
X148590000Y-109220000D03*
X156845000Y-120015000D03*
X151765000Y-120015000D03*
X148590000Y-118745000D03*
X133350000Y-111760000D03*
X137160000Y-118745000D03*
D14*
X113665000Y-103505000D03*
X113665000Y-101600000D03*
X113665000Y-98425000D03*
X113665000Y-96520000D03*
X113665000Y-94615000D03*
X176530000Y-90170000D03*
X176530000Y-88265000D03*
X176530000Y-86360000D03*
X176530000Y-83185000D03*
X176530000Y-81280000D03*
D15*
X167640000Y-117475000D03*
X160020000Y-117475000D03*
X135890000Y-117475000D03*
X139700000Y-100330000D03*
X140335000Y-114300000D03*
D14*
X132080000Y-100965000D03*
X132080000Y-109855000D03*
X170815000Y-105410000D03*
X157480000Y-105410000D03*
X146050000Y-107950000D03*
X146685000Y-104140000D03*
X159385000Y-109855000D03*
X168275000Y-110490000D03*
X169545000Y-111760000D03*
X156845000Y-109220000D03*
X169545000Y-102870000D03*
X152400000Y-110490000D03*
X142240000Y-113030000D03*
X138430000Y-113030000D03*
X130810000Y-106045000D03*
X149225000Y-111760000D03*
X170815000Y-113030000D03*
X156845000Y-113030000D03*
X168275000Y-104140000D03*
X152400000Y-114300000D03*
X147320000Y-115570000D03*
X129540000Y-106045000D03*
X126365000Y-116840000D03*
X150495000Y-118110000D03*
X150495000Y-97790000D03*
X146050000Y-114300000D03*
X145415000Y-98425000D03*
X146685000Y-90170000D03*
X174625000Y-90805000D03*
X142240000Y-90170000D03*
X139700000Y-95250000D03*
X174625000Y-88900000D03*
X146050000Y-88900000D03*
X146050000Y-87630000D03*
X153670000Y-87630000D03*
X165735000Y-115570000D03*
X160655000Y-115570000D03*
X173355000Y-93980000D03*
X152400000Y-93980000D03*
X139700000Y-97155000D03*
X149225000Y-95250000D03*
D15*
X172085000Y-106680000D03*
X157480000Y-106680000D03*
D14*
X152400000Y-92075000D03*
X146050000Y-91440000D03*
D16*
X165735000Y-108585000D02*
X172085000Y-108585000D01*
X175895000Y-108585000D02*
X175895000Y-109855000D01*
X172085000Y-108585000D02*
X175895000Y-108585000D01*
X175895000Y-120015000D02*
X175895000Y-113665000D01*
X165354000Y-120015000D02*
X175895000Y-120015000D01*
X175895000Y-120015000D02*
X177800000Y-120015000D01*
X175895000Y-109855000D02*
X175895000Y-113665000D01*
X148590000Y-106045000D02*
X148590000Y-109220000D01*
X156845000Y-120015000D02*
X165354000Y-120015000D01*
X165354000Y-118618000D02*
X165354000Y-120015000D01*
X177800000Y-120015000D02*
X179705000Y-118110000D01*
X179705000Y-118110000D02*
X182245000Y-115570000D01*
X176530000Y-76200000D02*
X176530000Y-81280000D01*
X179705000Y-76200000D02*
X176530000Y-76200000D01*
X182245000Y-73660000D02*
X179705000Y-76200000D01*
X116205000Y-70485000D02*
X113665000Y-73025000D01*
X113665000Y-73025000D02*
X111125000Y-73025000D01*
X111125000Y-73025000D02*
X111125000Y-81915000D01*
X111125000Y-81915000D02*
X113665000Y-81915000D01*
X113665000Y-116205000D02*
X113665000Y-103505000D01*
X116205000Y-118745000D02*
X113665000Y-116205000D01*
X151765000Y-120015000D02*
X156845000Y-120015000D01*
X137160000Y-118745000D02*
X148590000Y-118745000D01*
X133350000Y-111760000D02*
X133350000Y-96520000D01*
X133350000Y-96520000D02*
X133390001Y-96479999D01*
X140929999Y-96479999D02*
X140970000Y-96439998D01*
X133390001Y-96479999D02*
X140929999Y-96479999D01*
X140970000Y-96439998D02*
X140970000Y-94615000D01*
X144145000Y-93980000D02*
X144145000Y-81915000D01*
X143510000Y-94615000D02*
X144145000Y-93980000D01*
X140970000Y-94615000D02*
X143510000Y-94615000D01*
X176530000Y-96520000D02*
X176530000Y-90170000D01*
X149225000Y-96520000D02*
X176530000Y-96520000D01*
X148590000Y-97155000D02*
X149225000Y-96520000D01*
X148590000Y-100965000D02*
X148590000Y-97155000D01*
X148590000Y-100965000D02*
X148590000Y-106045000D01*
X150495000Y-81915000D02*
X146050000Y-81915000D01*
X150495000Y-85725000D02*
X150495000Y-81915000D01*
X113665000Y-81915000D02*
X146050000Y-81915000D01*
X146050000Y-81915000D02*
X167005000Y-81915000D01*
X113665000Y-94615000D02*
X113665000Y-81915000D01*
X113665000Y-98425000D02*
X113665000Y-96520000D01*
X113665000Y-103505000D02*
X113665000Y-101600000D01*
X113665000Y-98425000D02*
X113665000Y-101600000D01*
X113665000Y-94615000D02*
X113665000Y-96520000D01*
X173355000Y-81280000D02*
X176530000Y-81280000D01*
X167640000Y-81280000D02*
X173355000Y-81280000D01*
X167005000Y-81915000D02*
X167640000Y-81280000D01*
X176530000Y-86360000D02*
X176530000Y-83185000D01*
X176530000Y-90170000D02*
X176530000Y-88265000D01*
X176530000Y-86360000D02*
X176530000Y-88265000D01*
X176530000Y-81280000D02*
X176530000Y-83185000D01*
D17*
X165735000Y-117475000D02*
X167640000Y-117475000D01*
X160020000Y-117475000D02*
X165735000Y-117475000D01*
X135890000Y-118110000D02*
X135890000Y-117475000D01*
X160020000Y-117475000D02*
X152400000Y-117475000D01*
X152400000Y-117475000D02*
X149860000Y-120015000D01*
X149860000Y-120015000D02*
X136525000Y-120015000D01*
X136525000Y-120015000D02*
X135890000Y-119380000D01*
X135890000Y-119380000D02*
X135890000Y-118110000D01*
X139700000Y-113665000D02*
X140335000Y-114300000D01*
X139700000Y-113665000D02*
X139700000Y-100330000D01*
D16*
X132080000Y-109855000D02*
X132080000Y-100965000D01*
X157480000Y-105410000D02*
X160020000Y-105410000D01*
X160020000Y-105410000D02*
X170815000Y-105410000D01*
X146050000Y-106680000D02*
X146050000Y-107950000D01*
X146685000Y-106045000D02*
X146050000Y-106680000D01*
X146685000Y-104140000D02*
X146685000Y-106045000D01*
X160020000Y-110490000D02*
X159385000Y-109855000D01*
X160655000Y-110490000D02*
X160020000Y-110490000D01*
X168275000Y-110490000D02*
X160655000Y-110490000D01*
X157480000Y-111760000D02*
X169545000Y-111760000D01*
X156845000Y-111125000D02*
X157480000Y-111760000D01*
X156845000Y-109220000D02*
X156845000Y-111125000D01*
X152400000Y-110490000D02*
X153670000Y-110490000D01*
X154305000Y-109855000D02*
X154305000Y-103505000D01*
X153670000Y-110490000D02*
X154305000Y-109855000D01*
X154305000Y-103505000D02*
X154940000Y-102870000D01*
X154940000Y-102870000D02*
X168275000Y-102870000D01*
X168275000Y-102870000D02*
X169545000Y-102870000D01*
X149225000Y-112395000D02*
X149225000Y-111760000D01*
X148590000Y-113030000D02*
X149225000Y-112395000D01*
X142240000Y-113030000D02*
X148590000Y-113030000D01*
X130810000Y-112395000D02*
X131445000Y-113030000D01*
X131445000Y-113030000D02*
X138430000Y-113030000D01*
X130810000Y-111125000D02*
X130810000Y-112395000D01*
X130810000Y-111125000D02*
X130810000Y-106045000D01*
X156845000Y-113030000D02*
X170815000Y-113030000D01*
X156210000Y-104140000D02*
X168275000Y-104140000D01*
X155575000Y-104775000D02*
X156210000Y-104140000D01*
X155575000Y-113665000D02*
X155575000Y-104775000D01*
X154940000Y-114300000D02*
X155575000Y-113665000D01*
X152400000Y-114300000D02*
X154940000Y-114300000D01*
X147320000Y-115570000D02*
X130175000Y-115570000D01*
X130175000Y-115570000D02*
X129540000Y-114935000D01*
X129540000Y-114935000D02*
X129540000Y-106045000D01*
X150495000Y-113030000D02*
X150495000Y-118110000D01*
X150495000Y-109855000D02*
X150495000Y-113030000D01*
X150495000Y-113030000D02*
X151130000Y-113030000D01*
X150495000Y-97790000D02*
X150495000Y-109855000D01*
X146685000Y-116840000D02*
X147955000Y-116840000D01*
X146050000Y-116205000D02*
X146685000Y-116840000D01*
X135255000Y-116205000D02*
X146050000Y-116205000D01*
X134620000Y-116840000D02*
X135255000Y-116205000D01*
X134620000Y-116840000D02*
X126365000Y-116840000D01*
X147955000Y-116840000D02*
X149225000Y-118110000D01*
X149225000Y-118110000D02*
X150495000Y-118110000D01*
X146050000Y-114300000D02*
X141605000Y-114300000D01*
X141605000Y-114300000D02*
X140970000Y-113665000D01*
X141605000Y-106680000D02*
X144780000Y-106680000D01*
X145415000Y-106045000D02*
X145415000Y-98425000D01*
X140970000Y-113665000D02*
X140970000Y-107315000D01*
X140970000Y-107315000D02*
X141605000Y-106680000D01*
X144780000Y-106680000D02*
X145415000Y-106045000D01*
X146685000Y-90170000D02*
X147320000Y-90805000D01*
X147320000Y-90805000D02*
X147360000Y-90805000D01*
X174625000Y-90805000D02*
X147360000Y-90805000D01*
X140335000Y-90170000D02*
X142240000Y-90170000D01*
X139700000Y-90805000D02*
X140335000Y-90170000D01*
X139700000Y-95250000D02*
X139700000Y-90805000D01*
X174625000Y-88900000D02*
X146050000Y-88900000D01*
X153670000Y-87630000D02*
X146050000Y-87630000D01*
X160655000Y-115570000D02*
X165735000Y-115570000D01*
X152400000Y-93980000D02*
X173355000Y-93980000D01*
X147320000Y-96520000D02*
X146685000Y-97155000D01*
X146685000Y-97155000D02*
X139700000Y-97155000D01*
X147955000Y-95885000D02*
X147320000Y-96520000D01*
X148590000Y-95250000D02*
X147955000Y-95885000D01*
X149225000Y-95250000D02*
X148590000Y-95250000D01*
D17*
X157480000Y-106680000D02*
X160020000Y-106680000D01*
X160020000Y-106680000D02*
X172085000Y-106680000D01*
D16*
X146685000Y-92075000D02*
X152400000Y-92075000D01*
X146050000Y-91440000D02*
X146685000Y-92075000D01*
D18*
G36*
X114303156Y-68403551D02*
X116205000Y-70305395D01*
X118106844Y-68403551D01*
X117862003Y-68020000D01*
X175190069Y-68020000D01*
X179843053Y-68945536D01*
X182525712Y-70738032D01*
X181654090Y-70740983D01*
X180598780Y-71178108D01*
X180343156Y-71578551D01*
X182245000Y-73480395D01*
X182259143Y-73466253D01*
X182438748Y-73645858D01*
X182424605Y-73660000D01*
X184326449Y-75561844D01*
X184726892Y-75306220D01*
X185167951Y-74231129D01*
X185166130Y-73693378D01*
X186324464Y-75426947D01*
X187250000Y-80079927D01*
X187250000Y-109150073D01*
X186324464Y-113803053D01*
X185165906Y-115536958D01*
X185164017Y-114979090D01*
X184726892Y-113923780D01*
X184326449Y-113668156D01*
X182424605Y-115570000D01*
X182438748Y-115584143D01*
X182259143Y-115763748D01*
X182245000Y-115749605D01*
X180343156Y-117651449D01*
X180598780Y-118051892D01*
X181673871Y-118492951D01*
X182528571Y-118490057D01*
X179843053Y-120284464D01*
X175190069Y-121210000D01*
X117862003Y-121210000D01*
X118106844Y-120826449D01*
X116205000Y-118924605D01*
X114303156Y-120826449D01*
X114547997Y-121210000D01*
X108019931Y-121210000D01*
X105796987Y-120767829D01*
X103971753Y-119548247D01*
X103053425Y-118173871D01*
X113282049Y-118173871D01*
X113285983Y-119335910D01*
X113723108Y-120391220D01*
X114123551Y-120646844D01*
X116025395Y-118745000D01*
X116384605Y-118745000D01*
X118286449Y-120646844D01*
X118686892Y-120391220D01*
X119127951Y-119316129D01*
X119124017Y-118154090D01*
X118686892Y-117098780D01*
X118571575Y-117025167D01*
X125429838Y-117025167D01*
X125571883Y-117368943D01*
X125834673Y-117632192D01*
X126178201Y-117774838D01*
X126550167Y-117775162D01*
X126893943Y-117633117D01*
X126927118Y-117600000D01*
X134620000Y-117600000D01*
X134804923Y-117563216D01*
X134804812Y-117689873D01*
X134937500Y-118011001D01*
X134937500Y-119380000D01*
X135010005Y-119744506D01*
X135216481Y-120053519D01*
X135851481Y-120688519D01*
X136160494Y-120894995D01*
X136525000Y-120967500D01*
X149860000Y-120967500D01*
X150224506Y-120894995D01*
X150533519Y-120688519D01*
X152794539Y-118427500D01*
X159484593Y-118427500D01*
X159803233Y-118559811D01*
X160234873Y-118560188D01*
X160556001Y-118427500D01*
X167104593Y-118427500D01*
X167423233Y-118559811D01*
X167854873Y-118560188D01*
X168253800Y-118395354D01*
X168559282Y-118090405D01*
X168724811Y-117691767D01*
X168725188Y-117260127D01*
X168560354Y-116861200D01*
X168255405Y-116555718D01*
X167856767Y-116390189D01*
X167425127Y-116389812D01*
X167103999Y-116522500D01*
X160555407Y-116522500D01*
X160512966Y-116504877D01*
X160840167Y-116505162D01*
X161183943Y-116363117D01*
X161217118Y-116330000D01*
X165172537Y-116330000D01*
X165204673Y-116362192D01*
X165548201Y-116504838D01*
X165920167Y-116505162D01*
X166263943Y-116363117D01*
X166527192Y-116100327D01*
X166669838Y-115756799D01*
X166670162Y-115384833D01*
X166528117Y-115041057D01*
X166486005Y-114998871D01*
X179322049Y-114998871D01*
X179325983Y-116160910D01*
X179763108Y-117216220D01*
X180163551Y-117471844D01*
X182065395Y-115570000D01*
X180163551Y-113668156D01*
X179763108Y-113923780D01*
X179322049Y-114998871D01*
X166486005Y-114998871D01*
X166265327Y-114777808D01*
X165921799Y-114635162D01*
X165549833Y-114634838D01*
X165206057Y-114776883D01*
X165172882Y-114810000D01*
X161217463Y-114810000D01*
X161185327Y-114777808D01*
X160841799Y-114635162D01*
X160469833Y-114634838D01*
X160126057Y-114776883D01*
X159862808Y-115039673D01*
X159720162Y-115383201D01*
X159719838Y-115755167D01*
X159861883Y-116098943D01*
X160124673Y-116362192D01*
X160192003Y-116390150D01*
X159805127Y-116389812D01*
X159483999Y-116522500D01*
X152400000Y-116522500D01*
X152035494Y-116595005D01*
X151726480Y-116801481D01*
X151255000Y-117272961D01*
X151255000Y-113765136D01*
X151420839Y-113732148D01*
X151667401Y-113567401D01*
X151832148Y-113320839D01*
X151890000Y-113030000D01*
X151832148Y-112739161D01*
X151667401Y-112492599D01*
X151420839Y-112327852D01*
X151255000Y-112294864D01*
X151255000Y-110675167D01*
X151464838Y-110675167D01*
X151606883Y-111018943D01*
X151869673Y-111282192D01*
X152213201Y-111424838D01*
X152585167Y-111425162D01*
X152928943Y-111283117D01*
X152962118Y-111250000D01*
X153670000Y-111250000D01*
X153960839Y-111192148D01*
X154207401Y-111027401D01*
X154815000Y-110419802D01*
X154815000Y-113350198D01*
X154625198Y-113540000D01*
X152962463Y-113540000D01*
X152930327Y-113507808D01*
X152586799Y-113365162D01*
X152214833Y-113364838D01*
X151871057Y-113506883D01*
X151607808Y-113769673D01*
X151465162Y-114113201D01*
X151464838Y-114485167D01*
X151606883Y-114828943D01*
X151869673Y-115092192D01*
X152213201Y-115234838D01*
X152585167Y-115235162D01*
X152928943Y-115093117D01*
X152962118Y-115060000D01*
X154940000Y-115060000D01*
X155230839Y-115002148D01*
X155477401Y-114837401D01*
X156112401Y-114202401D01*
X156277148Y-113955839D01*
X156305550Y-113813053D01*
X156314673Y-113822192D01*
X156658201Y-113964838D01*
X157030167Y-113965162D01*
X157373943Y-113823117D01*
X157407118Y-113790000D01*
X170252537Y-113790000D01*
X170284673Y-113822192D01*
X170628201Y-113964838D01*
X171000167Y-113965162D01*
X171343943Y-113823117D01*
X171607192Y-113560327D01*
X171636996Y-113488551D01*
X180343156Y-113488551D01*
X182245000Y-115390395D01*
X184146844Y-113488551D01*
X183891220Y-113088108D01*
X182816129Y-112647049D01*
X181654090Y-112650983D01*
X180598780Y-113088108D01*
X180343156Y-113488551D01*
X171636996Y-113488551D01*
X171749838Y-113216799D01*
X171750162Y-112844833D01*
X171608117Y-112501057D01*
X171345327Y-112237808D01*
X171001799Y-112095162D01*
X170629833Y-112094838D01*
X170374570Y-112200310D01*
X170479838Y-111946799D01*
X170480162Y-111574833D01*
X170338117Y-111231057D01*
X170075327Y-110967808D01*
X169731799Y-110825162D01*
X169359833Y-110824838D01*
X169104570Y-110930310D01*
X169209838Y-110676799D01*
X169210162Y-110304833D01*
X169068117Y-109961057D01*
X168805327Y-109697808D01*
X168461799Y-109555162D01*
X168089833Y-109554838D01*
X167746057Y-109696883D01*
X167712882Y-109730000D01*
X160334802Y-109730000D01*
X160320122Y-109715320D01*
X160320162Y-109669833D01*
X160178117Y-109326057D01*
X159915327Y-109062808D01*
X159571799Y-108920162D01*
X159199833Y-108919838D01*
X158856057Y-109061883D01*
X158592808Y-109324673D01*
X158450162Y-109668201D01*
X158449838Y-110040167D01*
X158591883Y-110383943D01*
X158854673Y-110647192D01*
X159198201Y-110789838D01*
X159245077Y-110789879D01*
X159455198Y-111000000D01*
X157794802Y-111000000D01*
X157605000Y-110810198D01*
X157605000Y-109782463D01*
X157637192Y-109750327D01*
X157779838Y-109406799D01*
X157780162Y-109034833D01*
X157638117Y-108691057D01*
X157375327Y-108427808D01*
X157031799Y-108285162D01*
X156659833Y-108284838D01*
X156335000Y-108419056D01*
X156335000Y-105089802D01*
X156524802Y-104900000D01*
X156679367Y-104900000D01*
X156545162Y-105223201D01*
X156544838Y-105595167D01*
X156686797Y-105938736D01*
X156560718Y-106064595D01*
X156395189Y-106463233D01*
X156394812Y-106894873D01*
X156559646Y-107293800D01*
X156864595Y-107599282D01*
X157263233Y-107764811D01*
X157694873Y-107765188D01*
X158016001Y-107632500D01*
X171549593Y-107632500D01*
X171868233Y-107764811D01*
X172299873Y-107765188D01*
X172698800Y-107600354D01*
X173004282Y-107295405D01*
X173169811Y-106896767D01*
X173170188Y-106465127D01*
X173005354Y-106066200D01*
X172700405Y-105760718D01*
X172301767Y-105595189D01*
X171870127Y-105594812D01*
X171725921Y-105654397D01*
X171749838Y-105596799D01*
X171750162Y-105224833D01*
X171608117Y-104881057D01*
X171345327Y-104617808D01*
X171001799Y-104475162D01*
X170629833Y-104474838D01*
X170286057Y-104616883D01*
X170252882Y-104650000D01*
X169075633Y-104650000D01*
X169209838Y-104326799D01*
X169210162Y-103954833D01*
X169104690Y-103699570D01*
X169358201Y-103804838D01*
X169730167Y-103805162D01*
X170073943Y-103663117D01*
X170337192Y-103400327D01*
X170479838Y-103056799D01*
X170480162Y-102684833D01*
X170338117Y-102341057D01*
X170075327Y-102077808D01*
X169731799Y-101935162D01*
X169359833Y-101934838D01*
X169016057Y-102076883D01*
X168982882Y-102110000D01*
X154940000Y-102110000D01*
X154649161Y-102167852D01*
X154402599Y-102332599D01*
X153767599Y-102967599D01*
X153602852Y-103214161D01*
X153545000Y-103505000D01*
X153545000Y-109540198D01*
X153355198Y-109730000D01*
X152962463Y-109730000D01*
X152930327Y-109697808D01*
X152586799Y-109555162D01*
X152214833Y-109554838D01*
X151871057Y-109696883D01*
X151607808Y-109959673D01*
X151465162Y-110303201D01*
X151464838Y-110675167D01*
X151255000Y-110675167D01*
X151255000Y-98352463D01*
X151287192Y-98320327D01*
X151429838Y-97976799D01*
X151430162Y-97604833D01*
X151288117Y-97261057D01*
X151025327Y-96997808D01*
X150681799Y-96855162D01*
X150309833Y-96854838D01*
X149966057Y-96996883D01*
X149702808Y-97259673D01*
X149560162Y-97603201D01*
X149559838Y-97975167D01*
X149701883Y-98318943D01*
X149735000Y-98352118D01*
X149735000Y-110959367D01*
X149411799Y-110825162D01*
X149039833Y-110824838D01*
X148696057Y-110966883D01*
X148432808Y-111229673D01*
X148290162Y-111573201D01*
X148289838Y-111945167D01*
X148380533Y-112164665D01*
X148275198Y-112270000D01*
X142802463Y-112270000D01*
X142770327Y-112237808D01*
X142426799Y-112095162D01*
X142054833Y-112094838D01*
X141730000Y-112229056D01*
X141730000Y-107629802D01*
X141919802Y-107440000D01*
X144780000Y-107440000D01*
X145070839Y-107382148D01*
X145290000Y-107235710D01*
X145290000Y-107387537D01*
X145257808Y-107419673D01*
X145115162Y-107763201D01*
X145114838Y-108135167D01*
X145256883Y-108478943D01*
X145519673Y-108742192D01*
X145863201Y-108884838D01*
X146235167Y-108885162D01*
X146578943Y-108743117D01*
X146842192Y-108480327D01*
X146984838Y-108136799D01*
X146985162Y-107764833D01*
X146843117Y-107421057D01*
X146810000Y-107387882D01*
X146810000Y-106994802D01*
X147222401Y-106582401D01*
X147387148Y-106335839D01*
X147445000Y-106045000D01*
X147445000Y-104702463D01*
X147477192Y-104670327D01*
X147619838Y-104326799D01*
X147620162Y-103954833D01*
X147478117Y-103611057D01*
X147215327Y-103347808D01*
X146871799Y-103205162D01*
X146499833Y-103204838D01*
X146175000Y-103339056D01*
X146175000Y-98987463D01*
X146207192Y-98955327D01*
X146349838Y-98611799D01*
X146350162Y-98239833D01*
X146215944Y-97915000D01*
X146685000Y-97915000D01*
X146975839Y-97857148D01*
X147222401Y-97692401D01*
X148820402Y-96094400D01*
X149038201Y-96184838D01*
X149410167Y-96185162D01*
X149753943Y-96043117D01*
X150017192Y-95780327D01*
X150159838Y-95436799D01*
X150160162Y-95064833D01*
X150018117Y-94721057D01*
X149755327Y-94457808D01*
X149411799Y-94315162D01*
X149039833Y-94314838D01*
X148696057Y-94456883D01*
X148662882Y-94490000D01*
X148590000Y-94490000D01*
X148299161Y-94547852D01*
X148052599Y-94712599D01*
X146370198Y-96395000D01*
X140262463Y-96395000D01*
X140230327Y-96362808D01*
X139886799Y-96220162D01*
X139514833Y-96219838D01*
X139171057Y-96361883D01*
X138907808Y-96624673D01*
X138765162Y-96968201D01*
X138764838Y-97340167D01*
X138906883Y-97683943D01*
X139169673Y-97947192D01*
X139513201Y-98089838D01*
X139885167Y-98090162D01*
X140228943Y-97948117D01*
X140262118Y-97915000D01*
X144614367Y-97915000D01*
X144480162Y-98238201D01*
X144479838Y-98610167D01*
X144621883Y-98953943D01*
X144655000Y-98987118D01*
X144655000Y-105730198D01*
X144465198Y-105920000D01*
X141605000Y-105920000D01*
X141314161Y-105977852D01*
X141067599Y-106142599D01*
X140652500Y-106557698D01*
X140652500Y-100865407D01*
X140784811Y-100546767D01*
X140785188Y-100115127D01*
X140620354Y-99716200D01*
X140315405Y-99410718D01*
X139916767Y-99245189D01*
X139485127Y-99244812D01*
X139086200Y-99409646D01*
X138780718Y-99714595D01*
X138615189Y-100113233D01*
X138614812Y-100544873D01*
X138747500Y-100866001D01*
X138747500Y-112149434D01*
X138616799Y-112095162D01*
X138244833Y-112094838D01*
X137901057Y-112236883D01*
X137867882Y-112270000D01*
X131759802Y-112270000D01*
X131570000Y-112080198D01*
X131570000Y-110655633D01*
X131893201Y-110789838D01*
X132265167Y-110790162D01*
X132608943Y-110648117D01*
X132872192Y-110385327D01*
X133014838Y-110041799D01*
X133015162Y-109669833D01*
X132873117Y-109326057D01*
X132840000Y-109292882D01*
X132840000Y-101527463D01*
X132872192Y-101495327D01*
X133014838Y-101151799D01*
X133015162Y-100779833D01*
X132873117Y-100436057D01*
X132610327Y-100172808D01*
X132266799Y-100030162D01*
X131894833Y-100029838D01*
X131551057Y-100171883D01*
X131287808Y-100434673D01*
X131145162Y-100778201D01*
X131144838Y-101150167D01*
X131286883Y-101493943D01*
X131320000Y-101527118D01*
X131320000Y-105244367D01*
X130996799Y-105110162D01*
X130624833Y-105109838D01*
X130281057Y-105251883D01*
X130175046Y-105357710D01*
X130070327Y-105252808D01*
X129726799Y-105110162D01*
X129354833Y-105109838D01*
X129011057Y-105251883D01*
X128747808Y-105514673D01*
X128605162Y-105858201D01*
X128604838Y-106230167D01*
X128746883Y-106573943D01*
X128780000Y-106607118D01*
X128780000Y-114935000D01*
X128837852Y-115225839D01*
X129002599Y-115472401D01*
X129610198Y-116080000D01*
X126927463Y-116080000D01*
X126895327Y-116047808D01*
X126551799Y-115905162D01*
X126179833Y-115904838D01*
X125836057Y-116046883D01*
X125572808Y-116309673D01*
X125430162Y-116653201D01*
X125429838Y-117025167D01*
X118571575Y-117025167D01*
X118286449Y-116843156D01*
X116384605Y-118745000D01*
X116025395Y-118745000D01*
X114123551Y-116843156D01*
X113723108Y-117098780D01*
X113282049Y-118173871D01*
X103053425Y-118173871D01*
X102752170Y-117723011D01*
X102541431Y-116663551D01*
X114303156Y-116663551D01*
X116205000Y-118565395D01*
X118106844Y-116663551D01*
X117851220Y-116263108D01*
X116776129Y-115822049D01*
X115614090Y-115825983D01*
X114558780Y-116263108D01*
X114303156Y-116663551D01*
X102541431Y-116663551D01*
X102310000Y-115500069D01*
X102310000Y-95435167D01*
X138764838Y-95435167D01*
X138906883Y-95778943D01*
X139169673Y-96042192D01*
X139513201Y-96184838D01*
X139885167Y-96185162D01*
X140228943Y-96043117D01*
X140492192Y-95780327D01*
X140634838Y-95436799D01*
X140635162Y-95064833D01*
X140493117Y-94721057D01*
X140460000Y-94687882D01*
X140460000Y-94165167D01*
X151464838Y-94165167D01*
X151606883Y-94508943D01*
X151869673Y-94772192D01*
X152213201Y-94914838D01*
X152585167Y-94915162D01*
X152928943Y-94773117D01*
X152962118Y-94740000D01*
X172792537Y-94740000D01*
X172824673Y-94772192D01*
X173168201Y-94914838D01*
X173540167Y-94915162D01*
X173883943Y-94773117D01*
X174147192Y-94510327D01*
X174289838Y-94166799D01*
X174290162Y-93794833D01*
X174148117Y-93451057D01*
X173885327Y-93187808D01*
X173541799Y-93045162D01*
X173169833Y-93044838D01*
X172826057Y-93186883D01*
X172792882Y-93220000D01*
X152962463Y-93220000D01*
X152930327Y-93187808D01*
X152586799Y-93045162D01*
X152214833Y-93044838D01*
X151871057Y-93186883D01*
X151607808Y-93449673D01*
X151465162Y-93793201D01*
X151464838Y-94165167D01*
X140460000Y-94165167D01*
X140460000Y-91119802D01*
X140649802Y-90930000D01*
X141677537Y-90930000D01*
X141709673Y-90962192D01*
X142053201Y-91104838D01*
X142425167Y-91105162D01*
X142768943Y-90963117D01*
X143032192Y-90700327D01*
X143174838Y-90356799D01*
X143175162Y-89984833D01*
X143033117Y-89641057D01*
X142770327Y-89377808D01*
X142426799Y-89235162D01*
X142054833Y-89234838D01*
X141711057Y-89376883D01*
X141677882Y-89410000D01*
X140335000Y-89410000D01*
X140044161Y-89467852D01*
X139797599Y-89632599D01*
X139162599Y-90267599D01*
X138997852Y-90514161D01*
X138940000Y-90805000D01*
X138940000Y-94687537D01*
X138907808Y-94719673D01*
X138765162Y-95063201D01*
X138764838Y-95435167D01*
X102310000Y-95435167D01*
X102310000Y-87815167D01*
X145114838Y-87815167D01*
X145256883Y-88158943D01*
X145362710Y-88264954D01*
X145257808Y-88369673D01*
X145115162Y-88713201D01*
X145114838Y-89085167D01*
X145256883Y-89428943D01*
X145519673Y-89692192D01*
X145819332Y-89816622D01*
X145750162Y-89983201D01*
X145749838Y-90355167D01*
X145819432Y-90523597D01*
X145521057Y-90646883D01*
X145257808Y-90909673D01*
X145115162Y-91253201D01*
X145114838Y-91625167D01*
X145256883Y-91968943D01*
X145519673Y-92232192D01*
X145863201Y-92374838D01*
X145910077Y-92374879D01*
X146147599Y-92612401D01*
X146394161Y-92777148D01*
X146685000Y-92835000D01*
X151837537Y-92835000D01*
X151869673Y-92867192D01*
X152213201Y-93009838D01*
X152585167Y-93010162D01*
X152928943Y-92868117D01*
X153192192Y-92605327D01*
X153334838Y-92261799D01*
X153335162Y-91889833D01*
X153200944Y-91565000D01*
X174062537Y-91565000D01*
X174094673Y-91597192D01*
X174438201Y-91739838D01*
X174810167Y-91740162D01*
X175153943Y-91598117D01*
X175417192Y-91335327D01*
X175559838Y-90991799D01*
X175560162Y-90619833D01*
X175418117Y-90276057D01*
X175155327Y-90012808D01*
X174811799Y-89870162D01*
X174439833Y-89869838D01*
X174096057Y-90011883D01*
X174062882Y-90045000D01*
X147634802Y-90045000D01*
X147620122Y-90030320D01*
X147620162Y-89984833D01*
X147485944Y-89660000D01*
X174062537Y-89660000D01*
X174094673Y-89692192D01*
X174438201Y-89834838D01*
X174810167Y-89835162D01*
X175153943Y-89693117D01*
X175417192Y-89430327D01*
X175559838Y-89086799D01*
X175560162Y-88714833D01*
X175418117Y-88371057D01*
X175155327Y-88107808D01*
X174811799Y-87965162D01*
X174439833Y-87964838D01*
X174096057Y-88106883D01*
X174062882Y-88140000D01*
X154470633Y-88140000D01*
X154604838Y-87816799D01*
X154605162Y-87444833D01*
X154463117Y-87101057D01*
X154200327Y-86837808D01*
X153856799Y-86695162D01*
X153484833Y-86694838D01*
X153141057Y-86836883D01*
X153107882Y-86870000D01*
X146612463Y-86870000D01*
X146580327Y-86837808D01*
X146236799Y-86695162D01*
X145864833Y-86694838D01*
X145521057Y-86836883D01*
X145257808Y-87099673D01*
X145115162Y-87443201D01*
X145114838Y-87815167D01*
X102310000Y-87815167D01*
X102310000Y-82271890D01*
X112223524Y-82271890D01*
X112393355Y-82681924D01*
X112783642Y-83110183D01*
X113308108Y-83356486D01*
X113538000Y-83235819D01*
X113538000Y-82042000D01*
X113792000Y-82042000D01*
X113792000Y-83235819D01*
X114021892Y-83356486D01*
X114546358Y-83110183D01*
X114936645Y-82681924D01*
X115106476Y-82271890D01*
X114985155Y-82042000D01*
X113792000Y-82042000D01*
X113538000Y-82042000D01*
X112344845Y-82042000D01*
X112223524Y-82271890D01*
X102310000Y-82271890D01*
X102310000Y-79375000D01*
X112150907Y-79375000D01*
X112263946Y-79943285D01*
X112585853Y-80425054D01*
X112926553Y-80652702D01*
X112783642Y-80719817D01*
X112393355Y-81148076D01*
X112223524Y-81558110D01*
X112344845Y-81788000D01*
X113538000Y-81788000D01*
X113538000Y-81768000D01*
X113792000Y-81768000D01*
X113792000Y-81788000D01*
X114985155Y-81788000D01*
X115106476Y-81558110D01*
X114936645Y-81148076D01*
X114546358Y-80719817D01*
X114403447Y-80652702D01*
X114744147Y-80425054D01*
X115066054Y-79943285D01*
X115179093Y-79375000D01*
X115066054Y-78806715D01*
X114744147Y-78324946D01*
X114702548Y-78297150D01*
X114750317Y-78288162D01*
X114966441Y-78149090D01*
X115111431Y-77936890D01*
X115162440Y-77685000D01*
X115162440Y-75985000D01*
X115118162Y-75749683D01*
X115112864Y-75741449D01*
X180343156Y-75741449D01*
X180598780Y-76141892D01*
X181673871Y-76582951D01*
X182835910Y-76579017D01*
X183891220Y-76141892D01*
X184146844Y-75741449D01*
X182245000Y-73839605D01*
X180343156Y-75741449D01*
X115112864Y-75741449D01*
X114979090Y-75533559D01*
X114766890Y-75388569D01*
X114515000Y-75337560D01*
X112815000Y-75337560D01*
X112579683Y-75381838D01*
X112363559Y-75520910D01*
X112218569Y-75733110D01*
X112167560Y-75985000D01*
X112167560Y-77685000D01*
X112211838Y-77920317D01*
X112350910Y-78136441D01*
X112563110Y-78281431D01*
X112630541Y-78295086D01*
X112585853Y-78324946D01*
X112263946Y-78806715D01*
X112150907Y-79375000D01*
X102310000Y-79375000D01*
X102310000Y-73729931D01*
X102541430Y-72566449D01*
X114303156Y-72566449D01*
X114558780Y-72966892D01*
X115633871Y-73407951D01*
X116795910Y-73404017D01*
X117556737Y-73088871D01*
X179322049Y-73088871D01*
X179325983Y-74250910D01*
X179763108Y-75306220D01*
X180163551Y-75561844D01*
X182065395Y-73660000D01*
X180163551Y-71758156D01*
X179763108Y-72013780D01*
X179322049Y-73088871D01*
X117556737Y-73088871D01*
X117851220Y-72966892D01*
X118106844Y-72566449D01*
X116205000Y-70664605D01*
X114303156Y-72566449D01*
X102541430Y-72566449D01*
X102752170Y-71506989D01*
X103816656Y-69913871D01*
X113282049Y-69913871D01*
X113285983Y-71075910D01*
X113723108Y-72131220D01*
X114123551Y-72386844D01*
X116025395Y-70485000D01*
X116384605Y-70485000D01*
X118286449Y-72386844D01*
X118686892Y-72131220D01*
X119127951Y-71056129D01*
X119124017Y-69894090D01*
X118686892Y-68838780D01*
X118286449Y-68583156D01*
X116384605Y-70485000D01*
X116025395Y-70485000D01*
X114123551Y-68583156D01*
X113723108Y-68838780D01*
X113282049Y-69913871D01*
X103816656Y-69913871D01*
X103971753Y-69681753D01*
X105796987Y-68462171D01*
X108019931Y-68020000D01*
X114547997Y-68020000D01*
X114303156Y-68403551D01*
X114303156Y-68403551D01*
G37*
X114303156Y-68403551D02*
X116205000Y-70305395D01*
X118106844Y-68403551D01*
X117862003Y-68020000D01*
X175190069Y-68020000D01*
X179843053Y-68945536D01*
X182525712Y-70738032D01*
X181654090Y-70740983D01*
X180598780Y-71178108D01*
X180343156Y-71578551D01*
X182245000Y-73480395D01*
X182259143Y-73466253D01*
X182438748Y-73645858D01*
X182424605Y-73660000D01*
X184326449Y-75561844D01*
X184726892Y-75306220D01*
X185167951Y-74231129D01*
X185166130Y-73693378D01*
X186324464Y-75426947D01*
X187250000Y-80079927D01*
X187250000Y-109150073D01*
X186324464Y-113803053D01*
X185165906Y-115536958D01*
X185164017Y-114979090D01*
X184726892Y-113923780D01*
X184326449Y-113668156D01*
X182424605Y-115570000D01*
X182438748Y-115584143D01*
X182259143Y-115763748D01*
X182245000Y-115749605D01*
X180343156Y-117651449D01*
X180598780Y-118051892D01*
X181673871Y-118492951D01*
X182528571Y-118490057D01*
X179843053Y-120284464D01*
X175190069Y-121210000D01*
X117862003Y-121210000D01*
X118106844Y-120826449D01*
X116205000Y-118924605D01*
X114303156Y-120826449D01*
X114547997Y-121210000D01*
X108019931Y-121210000D01*
X105796987Y-120767829D01*
X103971753Y-119548247D01*
X103053425Y-118173871D01*
X113282049Y-118173871D01*
X113285983Y-119335910D01*
X113723108Y-120391220D01*
X114123551Y-120646844D01*
X116025395Y-118745000D01*
X116384605Y-118745000D01*
X118286449Y-120646844D01*
X118686892Y-120391220D01*
X119127951Y-119316129D01*
X119124017Y-118154090D01*
X118686892Y-117098780D01*
X118571575Y-117025167D01*
X125429838Y-117025167D01*
X125571883Y-117368943D01*
X125834673Y-117632192D01*
X126178201Y-117774838D01*
X126550167Y-117775162D01*
X126893943Y-117633117D01*
X126927118Y-117600000D01*
X134620000Y-117600000D01*
X134804923Y-117563216D01*
X134804812Y-117689873D01*
X134937500Y-118011001D01*
X134937500Y-119380000D01*
X135010005Y-119744506D01*
X135216481Y-120053519D01*
X135851481Y-120688519D01*
X136160494Y-120894995D01*
X136525000Y-120967500D01*
X149860000Y-120967500D01*
X150224506Y-120894995D01*
X150533519Y-120688519D01*
X152794539Y-118427500D01*
X159484593Y-118427500D01*
X159803233Y-118559811D01*
X160234873Y-118560188D01*
X160556001Y-118427500D01*
X167104593Y-118427500D01*
X167423233Y-118559811D01*
X167854873Y-118560188D01*
X168253800Y-118395354D01*
X168559282Y-118090405D01*
X168724811Y-117691767D01*
X168725188Y-117260127D01*
X168560354Y-116861200D01*
X168255405Y-116555718D01*
X167856767Y-116390189D01*
X167425127Y-116389812D01*
X167103999Y-116522500D01*
X160555407Y-116522500D01*
X160512966Y-116504877D01*
X160840167Y-116505162D01*
X161183943Y-116363117D01*
X161217118Y-116330000D01*
X165172537Y-116330000D01*
X165204673Y-116362192D01*
X165548201Y-116504838D01*
X165920167Y-116505162D01*
X166263943Y-116363117D01*
X166527192Y-116100327D01*
X166669838Y-115756799D01*
X166670162Y-115384833D01*
X166528117Y-115041057D01*
X166486005Y-114998871D01*
X179322049Y-114998871D01*
X179325983Y-116160910D01*
X179763108Y-117216220D01*
X180163551Y-117471844D01*
X182065395Y-115570000D01*
X180163551Y-113668156D01*
X179763108Y-113923780D01*
X179322049Y-114998871D01*
X166486005Y-114998871D01*
X166265327Y-114777808D01*
X165921799Y-114635162D01*
X165549833Y-114634838D01*
X165206057Y-114776883D01*
X165172882Y-114810000D01*
X161217463Y-114810000D01*
X161185327Y-114777808D01*
X160841799Y-114635162D01*
X160469833Y-114634838D01*
X160126057Y-114776883D01*
X159862808Y-115039673D01*
X159720162Y-115383201D01*
X159719838Y-115755167D01*
X159861883Y-116098943D01*
X160124673Y-116362192D01*
X160192003Y-116390150D01*
X159805127Y-116389812D01*
X159483999Y-116522500D01*
X152400000Y-116522500D01*
X152035494Y-116595005D01*
X151726480Y-116801481D01*
X151255000Y-117272961D01*
X151255000Y-113765136D01*
X151420839Y-113732148D01*
X151667401Y-113567401D01*
X151832148Y-113320839D01*
X151890000Y-113030000D01*
X151832148Y-112739161D01*
X151667401Y-112492599D01*
X151420839Y-112327852D01*
X151255000Y-112294864D01*
X151255000Y-110675167D01*
X151464838Y-110675167D01*
X151606883Y-111018943D01*
X151869673Y-111282192D01*
X152213201Y-111424838D01*
X152585167Y-111425162D01*
X152928943Y-111283117D01*
X152962118Y-111250000D01*
X153670000Y-111250000D01*
X153960839Y-111192148D01*
X154207401Y-111027401D01*
X154815000Y-110419802D01*
X154815000Y-113350198D01*
X154625198Y-113540000D01*
X152962463Y-113540000D01*
X152930327Y-113507808D01*
X152586799Y-113365162D01*
X152214833Y-113364838D01*
X151871057Y-113506883D01*
X151607808Y-113769673D01*
X151465162Y-114113201D01*
X151464838Y-114485167D01*
X151606883Y-114828943D01*
X151869673Y-115092192D01*
X152213201Y-115234838D01*
X152585167Y-115235162D01*
X152928943Y-115093117D01*
X152962118Y-115060000D01*
X154940000Y-115060000D01*
X155230839Y-115002148D01*
X155477401Y-114837401D01*
X156112401Y-114202401D01*
X156277148Y-113955839D01*
X156305550Y-113813053D01*
X156314673Y-113822192D01*
X156658201Y-113964838D01*
X157030167Y-113965162D01*
X157373943Y-113823117D01*
X157407118Y-113790000D01*
X170252537Y-113790000D01*
X170284673Y-113822192D01*
X170628201Y-113964838D01*
X171000167Y-113965162D01*
X171343943Y-113823117D01*
X171607192Y-113560327D01*
X171636996Y-113488551D01*
X180343156Y-113488551D01*
X182245000Y-115390395D01*
X184146844Y-113488551D01*
X183891220Y-113088108D01*
X182816129Y-112647049D01*
X181654090Y-112650983D01*
X180598780Y-113088108D01*
X180343156Y-113488551D01*
X171636996Y-113488551D01*
X171749838Y-113216799D01*
X171750162Y-112844833D01*
X171608117Y-112501057D01*
X171345327Y-112237808D01*
X171001799Y-112095162D01*
X170629833Y-112094838D01*
X170374570Y-112200310D01*
X170479838Y-111946799D01*
X170480162Y-111574833D01*
X170338117Y-111231057D01*
X170075327Y-110967808D01*
X169731799Y-110825162D01*
X169359833Y-110824838D01*
X169104570Y-110930310D01*
X169209838Y-110676799D01*
X169210162Y-110304833D01*
X169068117Y-109961057D01*
X168805327Y-109697808D01*
X168461799Y-109555162D01*
X168089833Y-109554838D01*
X167746057Y-109696883D01*
X167712882Y-109730000D01*
X160334802Y-109730000D01*
X160320122Y-109715320D01*
X160320162Y-109669833D01*
X160178117Y-109326057D01*
X159915327Y-109062808D01*
X159571799Y-108920162D01*
X159199833Y-108919838D01*
X158856057Y-109061883D01*
X158592808Y-109324673D01*
X158450162Y-109668201D01*
X158449838Y-110040167D01*
X158591883Y-110383943D01*
X158854673Y-110647192D01*
X159198201Y-110789838D01*
X159245077Y-110789879D01*
X159455198Y-111000000D01*
X157794802Y-111000000D01*
X157605000Y-110810198D01*
X157605000Y-109782463D01*
X157637192Y-109750327D01*
X157779838Y-109406799D01*
X157780162Y-109034833D01*
X157638117Y-108691057D01*
X157375327Y-108427808D01*
X157031799Y-108285162D01*
X156659833Y-108284838D01*
X156335000Y-108419056D01*
X156335000Y-105089802D01*
X156524802Y-104900000D01*
X156679367Y-104900000D01*
X156545162Y-105223201D01*
X156544838Y-105595167D01*
X156686797Y-105938736D01*
X156560718Y-106064595D01*
X156395189Y-106463233D01*
X156394812Y-106894873D01*
X156559646Y-107293800D01*
X156864595Y-107599282D01*
X157263233Y-107764811D01*
X157694873Y-107765188D01*
X158016001Y-107632500D01*
X171549593Y-107632500D01*
X171868233Y-107764811D01*
X172299873Y-107765188D01*
X172698800Y-107600354D01*
X173004282Y-107295405D01*
X173169811Y-106896767D01*
X173170188Y-106465127D01*
X173005354Y-106066200D01*
X172700405Y-105760718D01*
X172301767Y-105595189D01*
X171870127Y-105594812D01*
X171725921Y-105654397D01*
X171749838Y-105596799D01*
X171750162Y-105224833D01*
X171608117Y-104881057D01*
X171345327Y-104617808D01*
X171001799Y-104475162D01*
X170629833Y-104474838D01*
X170286057Y-104616883D01*
X170252882Y-104650000D01*
X169075633Y-104650000D01*
X169209838Y-104326799D01*
X169210162Y-103954833D01*
X169104690Y-103699570D01*
X169358201Y-103804838D01*
X169730167Y-103805162D01*
X170073943Y-103663117D01*
X170337192Y-103400327D01*
X170479838Y-103056799D01*
X170480162Y-102684833D01*
X170338117Y-102341057D01*
X170075327Y-102077808D01*
X169731799Y-101935162D01*
X169359833Y-101934838D01*
X169016057Y-102076883D01*
X168982882Y-102110000D01*
X154940000Y-102110000D01*
X154649161Y-102167852D01*
X154402599Y-102332599D01*
X153767599Y-102967599D01*
X153602852Y-103214161D01*
X153545000Y-103505000D01*
X153545000Y-109540198D01*
X153355198Y-109730000D01*
X152962463Y-109730000D01*
X152930327Y-109697808D01*
X152586799Y-109555162D01*
X152214833Y-109554838D01*
X151871057Y-109696883D01*
X151607808Y-109959673D01*
X151465162Y-110303201D01*
X151464838Y-110675167D01*
X151255000Y-110675167D01*
X151255000Y-98352463D01*
X151287192Y-98320327D01*
X151429838Y-97976799D01*
X151430162Y-97604833D01*
X151288117Y-97261057D01*
X151025327Y-96997808D01*
X150681799Y-96855162D01*
X150309833Y-96854838D01*
X149966057Y-96996883D01*
X149702808Y-97259673D01*
X149560162Y-97603201D01*
X149559838Y-97975167D01*
X149701883Y-98318943D01*
X149735000Y-98352118D01*
X149735000Y-110959367D01*
X149411799Y-110825162D01*
X149039833Y-110824838D01*
X148696057Y-110966883D01*
X148432808Y-111229673D01*
X148290162Y-111573201D01*
X148289838Y-111945167D01*
X148380533Y-112164665D01*
X148275198Y-112270000D01*
X142802463Y-112270000D01*
X142770327Y-112237808D01*
X142426799Y-112095162D01*
X142054833Y-112094838D01*
X141730000Y-112229056D01*
X141730000Y-107629802D01*
X141919802Y-107440000D01*
X144780000Y-107440000D01*
X145070839Y-107382148D01*
X145290000Y-107235710D01*
X145290000Y-107387537D01*
X145257808Y-107419673D01*
X145115162Y-107763201D01*
X145114838Y-108135167D01*
X145256883Y-108478943D01*
X145519673Y-108742192D01*
X145863201Y-108884838D01*
X146235167Y-108885162D01*
X146578943Y-108743117D01*
X146842192Y-108480327D01*
X146984838Y-108136799D01*
X146985162Y-107764833D01*
X146843117Y-107421057D01*
X146810000Y-107387882D01*
X146810000Y-106994802D01*
X147222401Y-106582401D01*
X147387148Y-106335839D01*
X147445000Y-106045000D01*
X147445000Y-104702463D01*
X147477192Y-104670327D01*
X147619838Y-104326799D01*
X147620162Y-103954833D01*
X147478117Y-103611057D01*
X147215327Y-103347808D01*
X146871799Y-103205162D01*
X146499833Y-103204838D01*
X146175000Y-103339056D01*
X146175000Y-98987463D01*
X146207192Y-98955327D01*
X146349838Y-98611799D01*
X146350162Y-98239833D01*
X146215944Y-97915000D01*
X146685000Y-97915000D01*
X146975839Y-97857148D01*
X147222401Y-97692401D01*
X148820402Y-96094400D01*
X149038201Y-96184838D01*
X149410167Y-96185162D01*
X149753943Y-96043117D01*
X150017192Y-95780327D01*
X150159838Y-95436799D01*
X150160162Y-95064833D01*
X150018117Y-94721057D01*
X149755327Y-94457808D01*
X149411799Y-94315162D01*
X149039833Y-94314838D01*
X148696057Y-94456883D01*
X148662882Y-94490000D01*
X148590000Y-94490000D01*
X148299161Y-94547852D01*
X148052599Y-94712599D01*
X146370198Y-96395000D01*
X140262463Y-96395000D01*
X140230327Y-96362808D01*
X139886799Y-96220162D01*
X139514833Y-96219838D01*
X139171057Y-96361883D01*
X138907808Y-96624673D01*
X138765162Y-96968201D01*
X138764838Y-97340167D01*
X138906883Y-97683943D01*
X139169673Y-97947192D01*
X139513201Y-98089838D01*
X139885167Y-98090162D01*
X140228943Y-97948117D01*
X140262118Y-97915000D01*
X144614367Y-97915000D01*
X144480162Y-98238201D01*
X144479838Y-98610167D01*
X144621883Y-98953943D01*
X144655000Y-98987118D01*
X144655000Y-105730198D01*
X144465198Y-105920000D01*
X141605000Y-105920000D01*
X141314161Y-105977852D01*
X141067599Y-106142599D01*
X140652500Y-106557698D01*
X140652500Y-100865407D01*
X140784811Y-100546767D01*
X140785188Y-100115127D01*
X140620354Y-99716200D01*
X140315405Y-99410718D01*
X139916767Y-99245189D01*
X139485127Y-99244812D01*
X139086200Y-99409646D01*
X138780718Y-99714595D01*
X138615189Y-100113233D01*
X138614812Y-100544873D01*
X138747500Y-100866001D01*
X138747500Y-112149434D01*
X138616799Y-112095162D01*
X138244833Y-112094838D01*
X137901057Y-112236883D01*
X137867882Y-112270000D01*
X131759802Y-112270000D01*
X131570000Y-112080198D01*
X131570000Y-110655633D01*
X131893201Y-110789838D01*
X132265167Y-110790162D01*
X132608943Y-110648117D01*
X132872192Y-110385327D01*
X133014838Y-110041799D01*
X133015162Y-109669833D01*
X132873117Y-109326057D01*
X132840000Y-109292882D01*
X132840000Y-101527463D01*
X132872192Y-101495327D01*
X133014838Y-101151799D01*
X133015162Y-100779833D01*
X132873117Y-100436057D01*
X132610327Y-100172808D01*
X132266799Y-100030162D01*
X131894833Y-100029838D01*
X131551057Y-100171883D01*
X131287808Y-100434673D01*
X131145162Y-100778201D01*
X131144838Y-101150167D01*
X131286883Y-101493943D01*
X131320000Y-101527118D01*
X131320000Y-105244367D01*
X130996799Y-105110162D01*
X130624833Y-105109838D01*
X130281057Y-105251883D01*
X130175046Y-105357710D01*
X130070327Y-105252808D01*
X129726799Y-105110162D01*
X129354833Y-105109838D01*
X129011057Y-105251883D01*
X128747808Y-105514673D01*
X128605162Y-105858201D01*
X128604838Y-106230167D01*
X128746883Y-106573943D01*
X128780000Y-106607118D01*
X128780000Y-114935000D01*
X128837852Y-115225839D01*
X129002599Y-115472401D01*
X129610198Y-116080000D01*
X126927463Y-116080000D01*
X126895327Y-116047808D01*
X126551799Y-115905162D01*
X126179833Y-115904838D01*
X125836057Y-116046883D01*
X125572808Y-116309673D01*
X125430162Y-116653201D01*
X125429838Y-117025167D01*
X118571575Y-117025167D01*
X118286449Y-116843156D01*
X116384605Y-118745000D01*
X116025395Y-118745000D01*
X114123551Y-116843156D01*
X113723108Y-117098780D01*
X113282049Y-118173871D01*
X103053425Y-118173871D01*
X102752170Y-117723011D01*
X102541431Y-116663551D01*
X114303156Y-116663551D01*
X116205000Y-118565395D01*
X118106844Y-116663551D01*
X117851220Y-116263108D01*
X116776129Y-115822049D01*
X115614090Y-115825983D01*
X114558780Y-116263108D01*
X114303156Y-116663551D01*
X102541431Y-116663551D01*
X102310000Y-115500069D01*
X102310000Y-95435167D01*
X138764838Y-95435167D01*
X138906883Y-95778943D01*
X139169673Y-96042192D01*
X139513201Y-96184838D01*
X139885167Y-96185162D01*
X140228943Y-96043117D01*
X140492192Y-95780327D01*
X140634838Y-95436799D01*
X140635162Y-95064833D01*
X140493117Y-94721057D01*
X140460000Y-94687882D01*
X140460000Y-94165167D01*
X151464838Y-94165167D01*
X151606883Y-94508943D01*
X151869673Y-94772192D01*
X152213201Y-94914838D01*
X152585167Y-94915162D01*
X152928943Y-94773117D01*
X152962118Y-94740000D01*
X172792537Y-94740000D01*
X172824673Y-94772192D01*
X173168201Y-94914838D01*
X173540167Y-94915162D01*
X173883943Y-94773117D01*
X174147192Y-94510327D01*
X174289838Y-94166799D01*
X174290162Y-93794833D01*
X174148117Y-93451057D01*
X173885327Y-93187808D01*
X173541799Y-93045162D01*
X173169833Y-93044838D01*
X172826057Y-93186883D01*
X172792882Y-93220000D01*
X152962463Y-93220000D01*
X152930327Y-93187808D01*
X152586799Y-93045162D01*
X152214833Y-93044838D01*
X151871057Y-93186883D01*
X151607808Y-93449673D01*
X151465162Y-93793201D01*
X151464838Y-94165167D01*
X140460000Y-94165167D01*
X140460000Y-91119802D01*
X140649802Y-90930000D01*
X141677537Y-90930000D01*
X141709673Y-90962192D01*
X142053201Y-91104838D01*
X142425167Y-91105162D01*
X142768943Y-90963117D01*
X143032192Y-90700327D01*
X143174838Y-90356799D01*
X143175162Y-89984833D01*
X143033117Y-89641057D01*
X142770327Y-89377808D01*
X142426799Y-89235162D01*
X142054833Y-89234838D01*
X141711057Y-89376883D01*
X141677882Y-89410000D01*
X140335000Y-89410000D01*
X140044161Y-89467852D01*
X139797599Y-89632599D01*
X139162599Y-90267599D01*
X138997852Y-90514161D01*
X138940000Y-90805000D01*
X138940000Y-94687537D01*
X138907808Y-94719673D01*
X138765162Y-95063201D01*
X138764838Y-95435167D01*
X102310000Y-95435167D01*
X102310000Y-87815167D01*
X145114838Y-87815167D01*
X145256883Y-88158943D01*
X145362710Y-88264954D01*
X145257808Y-88369673D01*
X145115162Y-88713201D01*
X145114838Y-89085167D01*
X145256883Y-89428943D01*
X145519673Y-89692192D01*
X145819332Y-89816622D01*
X145750162Y-89983201D01*
X145749838Y-90355167D01*
X145819432Y-90523597D01*
X145521057Y-90646883D01*
X145257808Y-90909673D01*
X145115162Y-91253201D01*
X145114838Y-91625167D01*
X145256883Y-91968943D01*
X145519673Y-92232192D01*
X145863201Y-92374838D01*
X145910077Y-92374879D01*
X146147599Y-92612401D01*
X146394161Y-92777148D01*
X146685000Y-92835000D01*
X151837537Y-92835000D01*
X151869673Y-92867192D01*
X152213201Y-93009838D01*
X152585167Y-93010162D01*
X152928943Y-92868117D01*
X153192192Y-92605327D01*
X153334838Y-92261799D01*
X153335162Y-91889833D01*
X153200944Y-91565000D01*
X174062537Y-91565000D01*
X174094673Y-91597192D01*
X174438201Y-91739838D01*
X174810167Y-91740162D01*
X175153943Y-91598117D01*
X175417192Y-91335327D01*
X175559838Y-90991799D01*
X175560162Y-90619833D01*
X175418117Y-90276057D01*
X175155327Y-90012808D01*
X174811799Y-89870162D01*
X174439833Y-89869838D01*
X174096057Y-90011883D01*
X174062882Y-90045000D01*
X147634802Y-90045000D01*
X147620122Y-90030320D01*
X147620162Y-89984833D01*
X147485944Y-89660000D01*
X174062537Y-89660000D01*
X174094673Y-89692192D01*
X174438201Y-89834838D01*
X174810167Y-89835162D01*
X175153943Y-89693117D01*
X175417192Y-89430327D01*
X175559838Y-89086799D01*
X175560162Y-88714833D01*
X175418117Y-88371057D01*
X175155327Y-88107808D01*
X174811799Y-87965162D01*
X174439833Y-87964838D01*
X174096057Y-88106883D01*
X174062882Y-88140000D01*
X154470633Y-88140000D01*
X154604838Y-87816799D01*
X154605162Y-87444833D01*
X154463117Y-87101057D01*
X154200327Y-86837808D01*
X153856799Y-86695162D01*
X153484833Y-86694838D01*
X153141057Y-86836883D01*
X153107882Y-86870000D01*
X146612463Y-86870000D01*
X146580327Y-86837808D01*
X146236799Y-86695162D01*
X145864833Y-86694838D01*
X145521057Y-86836883D01*
X145257808Y-87099673D01*
X145115162Y-87443201D01*
X145114838Y-87815167D01*
X102310000Y-87815167D01*
X102310000Y-82271890D01*
X112223524Y-82271890D01*
X112393355Y-82681924D01*
X112783642Y-83110183D01*
X113308108Y-83356486D01*
X113538000Y-83235819D01*
X113538000Y-82042000D01*
X113792000Y-82042000D01*
X113792000Y-83235819D01*
X114021892Y-83356486D01*
X114546358Y-83110183D01*
X114936645Y-82681924D01*
X115106476Y-82271890D01*
X114985155Y-82042000D01*
X113792000Y-82042000D01*
X113538000Y-82042000D01*
X112344845Y-82042000D01*
X112223524Y-82271890D01*
X102310000Y-82271890D01*
X102310000Y-79375000D01*
X112150907Y-79375000D01*
X112263946Y-79943285D01*
X112585853Y-80425054D01*
X112926553Y-80652702D01*
X112783642Y-80719817D01*
X112393355Y-81148076D01*
X112223524Y-81558110D01*
X112344845Y-81788000D01*
X113538000Y-81788000D01*
X113538000Y-81768000D01*
X113792000Y-81768000D01*
X113792000Y-81788000D01*
X114985155Y-81788000D01*
X115106476Y-81558110D01*
X114936645Y-81148076D01*
X114546358Y-80719817D01*
X114403447Y-80652702D01*
X114744147Y-80425054D01*
X115066054Y-79943285D01*
X115179093Y-79375000D01*
X115066054Y-78806715D01*
X114744147Y-78324946D01*
X114702548Y-78297150D01*
X114750317Y-78288162D01*
X114966441Y-78149090D01*
X115111431Y-77936890D01*
X115162440Y-77685000D01*
X115162440Y-75985000D01*
X115118162Y-75749683D01*
X115112864Y-75741449D01*
X180343156Y-75741449D01*
X180598780Y-76141892D01*
X181673871Y-76582951D01*
X182835910Y-76579017D01*
X183891220Y-76141892D01*
X184146844Y-75741449D01*
X182245000Y-73839605D01*
X180343156Y-75741449D01*
X115112864Y-75741449D01*
X114979090Y-75533559D01*
X114766890Y-75388569D01*
X114515000Y-75337560D01*
X112815000Y-75337560D01*
X112579683Y-75381838D01*
X112363559Y-75520910D01*
X112218569Y-75733110D01*
X112167560Y-75985000D01*
X112167560Y-77685000D01*
X112211838Y-77920317D01*
X112350910Y-78136441D01*
X112563110Y-78281431D01*
X112630541Y-78295086D01*
X112585853Y-78324946D01*
X112263946Y-78806715D01*
X112150907Y-79375000D01*
X102310000Y-79375000D01*
X102310000Y-73729931D01*
X102541430Y-72566449D01*
X114303156Y-72566449D01*
X114558780Y-72966892D01*
X115633871Y-73407951D01*
X116795910Y-73404017D01*
X117556737Y-73088871D01*
X179322049Y-73088871D01*
X179325983Y-74250910D01*
X179763108Y-75306220D01*
X180163551Y-75561844D01*
X182065395Y-73660000D01*
X180163551Y-71758156D01*
X179763108Y-72013780D01*
X179322049Y-73088871D01*
X117556737Y-73088871D01*
X117851220Y-72966892D01*
X118106844Y-72566449D01*
X116205000Y-70664605D01*
X114303156Y-72566449D01*
X102541430Y-72566449D01*
X102752170Y-71506989D01*
X103816656Y-69913871D01*
X113282049Y-69913871D01*
X113285983Y-71075910D01*
X113723108Y-72131220D01*
X114123551Y-72386844D01*
X116025395Y-70485000D01*
X116384605Y-70485000D01*
X118286449Y-72386844D01*
X118686892Y-72131220D01*
X119127951Y-71056129D01*
X119124017Y-69894090D01*
X118686892Y-68838780D01*
X118286449Y-68583156D01*
X116384605Y-70485000D01*
X116025395Y-70485000D01*
X114123551Y-68583156D01*
X113723108Y-68838780D01*
X113282049Y-69913871D01*
X103816656Y-69913871D01*
X103971753Y-69681753D01*
X105796987Y-68462171D01*
X108019931Y-68020000D01*
X114547997Y-68020000D01*
X114303156Y-68403551D01*
G36*
X146147599Y-117377401D02*
X146394161Y-117542148D01*
X146685000Y-117600000D01*
X147640198Y-117600000D01*
X148687599Y-118647401D01*
X148934160Y-118812148D01*
X149225000Y-118870000D01*
X149657962Y-118870000D01*
X149465462Y-119062500D01*
X136919538Y-119062500D01*
X136842500Y-118985462D01*
X136842500Y-118010407D01*
X136974811Y-117691767D01*
X136975188Y-117260127D01*
X136853243Y-116965000D01*
X145735198Y-116965000D01*
X146147599Y-117377401D01*
X146147599Y-117377401D01*
G37*
X146147599Y-117377401D02*
X146394161Y-117542148D01*
X146685000Y-117600000D01*
X147640198Y-117600000D01*
X148687599Y-118647401D01*
X148934160Y-118812148D01*
X149225000Y-118870000D01*
X149657962Y-118870000D01*
X149465462Y-119062500D01*
X136919538Y-119062500D01*
X136842500Y-118985462D01*
X136842500Y-118010407D01*
X136974811Y-117691767D01*
X136975188Y-117260127D01*
X136853243Y-116965000D01*
X145735198Y-116965000D01*
X146147599Y-117377401D01*
M02*
