G04 #@! TF.FileFunction,Copper,L1,Top,Signal*
%FSLAX46Y46*%
G04 Gerber Fmt 4.6, Leading zero omitted, Abs format (unit mm)*
G04 Created by KiCad (PCBNEW 4.0.7) date Thu Nov 23 12:59:31 2017*
%MOMM*%
%LPD*%
G01*
G04 APERTURE LIST*
%ADD10C,0.100000*%
%ADD11C,4.572000*%
%ADD12R,1.200000X0.750000*%
%ADD13R,0.750000X1.200000*%
%ADD14R,1.143000X0.508000*%
%ADD15R,1.500000X1.500000*%
%ADD16R,3.000000X0.600000*%
%ADD17R,4.200000X0.700000*%
%ADD18R,1.700000X1.700000*%
%ADD19O,1.700000X1.700000*%
%ADD20R,1.200000X0.900000*%
%ADD21R,0.900000X1.200000*%
%ADD22R,0.850000X1.100000*%
%ADD23R,0.750000X1.100000*%
%ADD24R,2.500000X1.800000*%
%ADD25R,2.500000X1.350000*%
%ADD26R,1.900000X2.500000*%
%ADD27R,2.000000X1.000000*%
%ADD28C,0.600000*%
%ADD29C,0.900000*%
%ADD30C,0.635000*%
%ADD31C,0.250000*%
G04 APERTURE END LIST*
D10*
D11*
X182245000Y-73660000D03*
X182245000Y-115570000D03*
X116205000Y-118745000D03*
D12*
X146370000Y-120015000D03*
X148270000Y-120015000D03*
X146370000Y-99695000D03*
X148270000Y-99695000D03*
D13*
X158715107Y-117850683D03*
X158715107Y-119750683D03*
D14*
X144145000Y-116840000D03*
X144145000Y-114300000D03*
X144145000Y-113030000D03*
X144145000Y-111760000D03*
X144145000Y-110490000D03*
X144145000Y-109220000D03*
X144145000Y-107950000D03*
X150495000Y-107950000D03*
X150495000Y-109220000D03*
X150495000Y-110490000D03*
X150495000Y-111760000D03*
X150495000Y-113030000D03*
X150495000Y-114300000D03*
X150495000Y-115570000D03*
X150495000Y-116840000D03*
X144145000Y-115570000D03*
X144145000Y-96520000D03*
X144145000Y-93980000D03*
X144145000Y-92710000D03*
X144145000Y-91440000D03*
X144145000Y-90170000D03*
X144145000Y-88900000D03*
X144145000Y-87630000D03*
X150495000Y-87630000D03*
X150495000Y-88900000D03*
X150495000Y-90170000D03*
X150495000Y-91440000D03*
X150495000Y-92710000D03*
X150495000Y-93980000D03*
X150495000Y-95250000D03*
X150495000Y-96520000D03*
X144145000Y-95250000D03*
D15*
X109335000Y-105960000D03*
D16*
X109085000Y-101560000D03*
X109085000Y-102560000D03*
X109085000Y-104560000D03*
X109085000Y-103560000D03*
X109085000Y-97560000D03*
X109085000Y-98560000D03*
X109085000Y-100560000D03*
X109085000Y-99560000D03*
X109085000Y-95560000D03*
X109085000Y-96560000D03*
X109085000Y-94560000D03*
X109085000Y-93560000D03*
D17*
X106485000Y-105560000D03*
X106485000Y-92560000D03*
D15*
X109335000Y-92160000D03*
X180860000Y-78825000D03*
D16*
X181110000Y-83225000D03*
X181110000Y-82225000D03*
X181110000Y-80225000D03*
X181110000Y-81225000D03*
X181110000Y-87225000D03*
X181110000Y-86225000D03*
X181110000Y-84225000D03*
X181110000Y-85225000D03*
X181110000Y-89225000D03*
X181110000Y-88225000D03*
X181110000Y-90225000D03*
X181110000Y-91225000D03*
D17*
X183710000Y-79225000D03*
X183710000Y-92225000D03*
D15*
X180860000Y-92625000D03*
D18*
X113665000Y-76835000D03*
D19*
X113665000Y-79375000D03*
X113665000Y-81915000D03*
D20*
X128100000Y-114935000D03*
X125900000Y-114935000D03*
X128100000Y-118745000D03*
X125900000Y-118745000D03*
D21*
X118745000Y-77005000D03*
X118745000Y-79205000D03*
X142240000Y-98255000D03*
X142240000Y-96055000D03*
D20*
X130980000Y-114935000D03*
X133180000Y-114935000D03*
X130980000Y-118745000D03*
X133180000Y-118745000D03*
X148385107Y-84510683D03*
X146185107Y-84510683D03*
D11*
X116205000Y-70485000D03*
D22*
X167630000Y-119820000D03*
X170935000Y-119820000D03*
X168730000Y-119820000D03*
X169830000Y-119820000D03*
X165430000Y-119820000D03*
X166530000Y-119820000D03*
X164330000Y-119820000D03*
D23*
X163285000Y-119820000D03*
D24*
X161410000Y-119470000D03*
D25*
X173870000Y-119695000D03*
D26*
X164100000Y-108420000D03*
X170070000Y-108420000D03*
D27*
X173970000Y-109970000D03*
X173970000Y-113670000D03*
D28*
X165735000Y-108585000D03*
X172085000Y-108585000D03*
X175895000Y-120015000D03*
X175895000Y-113665000D03*
X175895000Y-109855000D03*
D29*
X165354000Y-118618000D03*
X148590000Y-100965000D03*
X140970000Y-94615000D03*
X150495000Y-85725000D03*
X146050000Y-81915000D03*
X148590000Y-109220000D03*
X156845000Y-120015000D03*
X151765000Y-120015000D03*
X148590000Y-118745000D03*
X133350000Y-111760000D03*
X137160000Y-118745000D03*
D28*
X113665000Y-103505000D03*
X113665000Y-101600000D03*
X113665000Y-98425000D03*
X113665000Y-96520000D03*
X113665000Y-94615000D03*
X176530000Y-90170000D03*
X176530000Y-88265000D03*
X176530000Y-86360000D03*
X176530000Y-83185000D03*
X176530000Y-81280000D03*
D29*
X167640000Y-117475000D03*
X160020000Y-117475000D03*
X135890000Y-117475000D03*
X139700000Y-100330000D03*
X140335000Y-114300000D03*
D28*
X132080000Y-100965000D03*
X132080000Y-109855000D03*
X170815000Y-105410000D03*
X157480000Y-105410000D03*
X146050000Y-107950000D03*
X146685000Y-104140000D03*
X159385000Y-109855000D03*
X168275000Y-110490000D03*
X169545000Y-111760000D03*
X156845000Y-109220000D03*
X169545000Y-102870000D03*
X152400000Y-110490000D03*
X142240000Y-113030000D03*
X138430000Y-113030000D03*
X130810000Y-106045000D03*
X149225000Y-111760000D03*
X170815000Y-113030000D03*
X156845000Y-113030000D03*
X168275000Y-104140000D03*
X152400000Y-114300000D03*
X147320000Y-115570000D03*
X129540000Y-106045000D03*
X126365000Y-116840000D03*
X150495000Y-118110000D03*
X150495000Y-97790000D03*
X146050000Y-114300000D03*
X145415000Y-98425000D03*
X146685000Y-90170000D03*
X174625000Y-90805000D03*
X142240000Y-90170000D03*
X139700000Y-95250000D03*
X174625000Y-88900000D03*
X146050000Y-88900000D03*
X146050000Y-87630000D03*
X153670000Y-87630000D03*
X165735000Y-115570000D03*
X160655000Y-115570000D03*
X173355000Y-93980000D03*
X152400000Y-93980000D03*
X139700000Y-97155000D03*
X149225000Y-95250000D03*
D29*
X172085000Y-106680000D03*
X157480000Y-106680000D03*
D28*
X152400000Y-92075000D03*
X146050000Y-91440000D03*
D30*
X123825000Y-114935000D02*
X103505000Y-114935000D01*
X103505000Y-114935000D02*
X102870000Y-114300000D01*
X102870000Y-114300000D02*
X102870000Y-77470000D01*
X102870000Y-77470000D02*
X103505000Y-76835000D01*
X103505000Y-76835000D02*
X113665000Y-76835000D01*
X135890000Y-107315000D02*
X144145000Y-99060000D01*
X126365000Y-107315000D02*
X135890000Y-107315000D01*
X144780000Y-120015000D02*
X123825000Y-120015000D01*
X123825000Y-120015000D02*
X123190000Y-119380000D01*
X123190000Y-115570000D02*
X123825000Y-114935000D01*
X123190000Y-119380000D02*
X123190000Y-115570000D01*
X123825000Y-114935000D02*
X125900000Y-114935000D01*
X125900000Y-107780000D02*
X126365000Y-107315000D01*
X125900000Y-114935000D02*
X125900000Y-107780000D01*
X118745000Y-77005000D02*
X113835000Y-77005000D01*
D31*
X113835000Y-77005000D02*
X113665000Y-76835000D01*
D30*
X144145000Y-99060000D02*
X144145000Y-96520000D01*
X144780000Y-99695000D02*
X144145000Y-99060000D01*
X146370000Y-99695000D02*
X144780000Y-99695000D01*
X144780000Y-120015000D02*
X144145000Y-119380000D01*
X144145000Y-119380000D02*
X144145000Y-116840000D01*
X146370000Y-120015000D02*
X144780000Y-120015000D01*
D31*
X161410000Y-119470000D02*
X158995790Y-119470000D01*
X158995790Y-119470000D02*
X158715107Y-119750683D01*
X164100000Y-108420000D02*
X165570000Y-108420000D01*
X165570000Y-108420000D02*
X165735000Y-108585000D01*
X170070000Y-108420000D02*
X171920000Y-108420000D01*
X171920000Y-108420000D02*
X172085000Y-108585000D01*
X173870000Y-119695000D02*
X175575000Y-119695000D01*
X175575000Y-119695000D02*
X175895000Y-120015000D01*
X175895000Y-113665000D02*
X173975000Y-113665000D01*
X173975000Y-113665000D02*
X173970000Y-113670000D01*
X173970000Y-109970000D02*
X175780000Y-109970000D01*
X175780000Y-109970000D02*
X175895000Y-109855000D01*
D30*
X165430000Y-119820000D02*
X165430000Y-118694000D01*
X165430000Y-118694000D02*
X165354000Y-118618000D01*
X148590000Y-108585000D02*
X148590000Y-109220000D01*
X149225000Y-107950000D02*
X148590000Y-108585000D01*
X156845000Y-120015000D02*
X158450790Y-120015000D01*
X158450790Y-120015000D02*
X158715107Y-119750683D01*
X148270000Y-120015000D02*
X151765000Y-120015000D01*
X148590000Y-118745000D02*
X148590000Y-119695000D01*
X148590000Y-119695000D02*
X148270000Y-120015000D01*
X133180000Y-118745000D02*
X134415000Y-118745000D01*
X136909990Y-118995010D02*
X137160000Y-118745000D01*
X134415000Y-118745000D02*
X134665010Y-118995010D01*
X134665010Y-118995010D02*
X136909990Y-118995010D01*
X142240000Y-98255000D02*
X140970000Y-96985000D01*
X140970000Y-96985000D02*
X140970000Y-94615000D01*
X133350000Y-114300000D02*
X133350000Y-111760000D01*
X133180000Y-114470000D02*
X133350000Y-114300000D01*
X133180000Y-114935000D02*
X133180000Y-114470000D01*
X133180000Y-118745000D02*
X133180000Y-114935000D01*
X150495000Y-107950000D02*
X149225000Y-107950000D01*
X148270000Y-99695000D02*
X148270000Y-100645000D01*
X148270000Y-100645000D02*
X148590000Y-100965000D01*
X146185107Y-84510683D02*
X146185107Y-82050107D01*
X146185107Y-82050107D02*
X146050000Y-81915000D01*
X150495000Y-87630000D02*
X150495000Y-85725000D01*
D31*
X109085000Y-103560000D02*
X113610000Y-103560000D01*
X113610000Y-103560000D02*
X113665000Y-103505000D01*
X113665000Y-101600000D02*
X109125000Y-101600000D01*
X109125000Y-101600000D02*
X109085000Y-101560000D01*
X109085000Y-98560000D02*
X113530000Y-98560000D01*
X113530000Y-98560000D02*
X113665000Y-98425000D01*
X113665000Y-96520000D02*
X109125000Y-96520000D01*
X109125000Y-96520000D02*
X109085000Y-96560000D01*
X109085000Y-94560000D02*
X113610000Y-94560000D01*
X113610000Y-94560000D02*
X113665000Y-94615000D01*
X181110000Y-90225000D02*
X176585000Y-90225000D01*
X176585000Y-90225000D02*
X176530000Y-90170000D01*
X176530000Y-88265000D02*
X181070000Y-88265000D01*
X181070000Y-88265000D02*
X181110000Y-88225000D01*
X181110000Y-86225000D02*
X176665000Y-86225000D01*
X176665000Y-86225000D02*
X176530000Y-86360000D01*
X176530000Y-83185000D02*
X181070000Y-83185000D01*
X181070000Y-83185000D02*
X181110000Y-83225000D01*
X181110000Y-81225000D02*
X176585000Y-81225000D01*
X176585000Y-81225000D02*
X176530000Y-81280000D01*
D30*
X167640000Y-117475000D02*
X167640000Y-119810000D01*
X167640000Y-119810000D02*
X167630000Y-119820000D01*
X135890000Y-116840000D02*
X135890000Y-117475000D01*
X135890000Y-116840000D02*
X135890000Y-112395000D01*
X136525000Y-111760000D02*
X135890000Y-112395000D01*
X144145000Y-111760000D02*
X136525000Y-111760000D01*
X158715107Y-117850683D02*
X159644317Y-117850683D01*
X159644317Y-117850683D02*
X160020000Y-117475000D01*
X109085000Y-99560000D02*
X138930000Y-99560000D01*
X138930000Y-99560000D02*
X139700000Y-100330000D01*
X140335000Y-114300000D02*
X144145000Y-114300000D01*
D31*
X144145000Y-110490000D02*
X132715000Y-110490000D01*
X132715000Y-110490000D02*
X132080000Y-109855000D01*
X131675000Y-100560000D02*
X109085000Y-100560000D01*
X132080000Y-100965000D02*
X131675000Y-100560000D01*
X151130000Y-105410000D02*
X157480000Y-105410000D01*
X144145000Y-109220000D02*
X142240000Y-109220000D01*
X142240000Y-109220000D02*
X141605000Y-108585000D01*
X141605000Y-108585000D02*
X141605000Y-106045000D01*
X141605000Y-106045000D02*
X142240000Y-105410000D01*
X142240000Y-105410000D02*
X151130000Y-105410000D01*
X170815000Y-84455000D02*
X171045000Y-84225000D01*
X171045000Y-84225000D02*
X181110000Y-84225000D01*
X170815000Y-105410000D02*
X170815000Y-84455000D01*
X158750000Y-104140000D02*
X146685000Y-104140000D01*
X159385000Y-104775000D02*
X158750000Y-104140000D01*
X159385000Y-109855000D02*
X159385000Y-104775000D01*
X168730000Y-119820000D02*
X168730000Y-116660000D01*
X168730000Y-116660000D02*
X168275000Y-116205000D01*
X168275000Y-110490000D02*
X168275000Y-116205000D01*
X146050000Y-107950000D02*
X144145000Y-107950000D01*
X169545000Y-111760000D02*
X169545000Y-119535000D01*
X169545000Y-119535000D02*
X169830000Y-119820000D01*
X156210000Y-109220000D02*
X156845000Y-109220000D01*
X154940000Y-109220000D02*
X156210000Y-109220000D01*
X154940000Y-109220000D02*
X150495000Y-109220000D01*
X169545000Y-82550000D02*
X169870000Y-82225000D01*
X169870000Y-82225000D02*
X181110000Y-82225000D01*
X169545000Y-102870000D02*
X169545000Y-82550000D01*
X150495000Y-110490000D02*
X152400000Y-110490000D01*
X138430000Y-113030000D02*
X142240000Y-113030000D01*
X130810000Y-102870000D02*
X130500000Y-102560000D01*
X130500000Y-102560000D02*
X109085000Y-102560000D01*
X130810000Y-106045000D02*
X130810000Y-102870000D01*
X150495000Y-111760000D02*
X149225000Y-111760000D01*
X170815000Y-113030000D02*
X170815000Y-119700000D01*
X170815000Y-119700000D02*
X170935000Y-119820000D01*
X156210000Y-113030000D02*
X156845000Y-113030000D01*
X150495000Y-113030000D02*
X156210000Y-113030000D01*
X168275000Y-104140000D02*
X168275000Y-80645000D01*
X168275000Y-80645000D02*
X168695000Y-80225000D01*
X168695000Y-80225000D02*
X181110000Y-80225000D01*
X150495000Y-114300000D02*
X152400000Y-114300000D01*
X149225000Y-115570000D02*
X147320000Y-115570000D01*
X129540000Y-104775000D02*
X129325000Y-104560000D01*
X129325000Y-104560000D02*
X109085000Y-104560000D01*
X129540000Y-106045000D02*
X129540000Y-104775000D01*
X150495000Y-115570000D02*
X149225000Y-115570000D01*
X125900000Y-117305000D02*
X126365000Y-116840000D01*
X125900000Y-118745000D02*
X125900000Y-117305000D01*
X150495000Y-96520000D02*
X148590000Y-96520000D01*
X145415000Y-85725000D02*
X144780000Y-85090000D01*
X148590000Y-96520000D02*
X147955000Y-95885000D01*
X147955000Y-95885000D02*
X147995001Y-95844999D01*
X143975000Y-79205000D02*
X118745000Y-79205000D01*
X147995001Y-95844999D02*
X147995001Y-86400001D01*
X144780000Y-80010000D02*
X143975000Y-79205000D01*
X147995001Y-86400001D02*
X147320000Y-85725000D01*
X147320000Y-85725000D02*
X145415000Y-85725000D01*
X144780000Y-85090000D02*
X144780000Y-80010000D01*
X150495000Y-118110000D02*
X150495000Y-116840000D01*
X150495000Y-96520000D02*
X150495000Y-97790000D01*
X118745000Y-79205000D02*
X113835000Y-79205000D01*
X113835000Y-79205000D02*
X113665000Y-79375000D01*
X146050000Y-115570000D02*
X146050000Y-114300000D01*
X146050000Y-115570000D02*
X144145000Y-115570000D01*
X145415000Y-95250000D02*
X145415000Y-98425000D01*
X144145000Y-95250000D02*
X145415000Y-95250000D01*
X142240000Y-96055000D02*
X143045000Y-95250000D01*
X143045000Y-95250000D02*
X144145000Y-95250000D01*
X109085000Y-93560000D02*
X143725000Y-93560000D01*
X143725000Y-93560000D02*
X144145000Y-93980000D01*
X144145000Y-92710000D02*
X146685000Y-92710000D01*
X146685000Y-92710000D02*
X147320000Y-92075000D01*
X147320000Y-92075000D02*
X147320000Y-90805000D01*
X147320000Y-90805000D02*
X146685000Y-90170000D01*
X174840000Y-91225000D02*
X174840000Y-91020000D01*
X174840000Y-91020000D02*
X174625000Y-90805000D01*
X181110000Y-91225000D02*
X174840000Y-91225000D01*
X142240000Y-90170000D02*
X144145000Y-90170000D01*
X139390000Y-95560000D02*
X139700000Y-95250000D01*
X109085000Y-95560000D02*
X139390000Y-95560000D01*
X181110000Y-89225000D02*
X174950000Y-89225000D01*
X174950000Y-89225000D02*
X174625000Y-88900000D01*
X144145000Y-88900000D02*
X146050000Y-88900000D01*
X164330000Y-119820000D02*
X164330000Y-111895000D01*
X164330000Y-111895000D02*
X167005000Y-109220000D01*
X167005000Y-109220000D02*
X167005000Y-88265000D01*
X167005000Y-88265000D02*
X166370000Y-87630000D01*
X166370000Y-87630000D02*
X165100000Y-87630000D01*
X153670000Y-87630000D02*
X165100000Y-87630000D01*
X146050000Y-87630000D02*
X144145000Y-87630000D01*
X152400000Y-88265000D02*
X151765000Y-88900000D01*
X151765000Y-88900000D02*
X150495000Y-88900000D01*
X152400000Y-85090000D02*
X152400000Y-88265000D01*
X151820683Y-84510683D02*
X152400000Y-85090000D01*
X148385107Y-84510683D02*
X151820683Y-84510683D01*
X165735000Y-115570000D02*
X166530000Y-116365000D01*
X166530000Y-116365000D02*
X166530000Y-119820000D01*
X160655000Y-93980000D02*
X160655000Y-115570000D01*
X159979999Y-93304999D02*
X160655000Y-93980000D01*
X152359999Y-93304999D02*
X159979999Y-93304999D01*
X150812500Y-92710000D02*
X151765000Y-92710000D01*
X151765000Y-92710000D02*
X152359999Y-93304999D01*
X150495000Y-92710000D02*
X150812500Y-92710000D01*
X173355000Y-87630000D02*
X173760000Y-87225000D01*
X173760000Y-87225000D02*
X181110000Y-87225000D01*
X173355000Y-93980000D02*
X173355000Y-87630000D01*
X150495000Y-93980000D02*
X152400000Y-93980000D01*
X109085000Y-97560000D02*
X139295000Y-97560000D01*
X139295000Y-97560000D02*
X139700000Y-97155000D01*
X150495000Y-95250000D02*
X149225000Y-95250000D01*
D30*
X148590000Y-106680000D02*
X157480000Y-106680000D01*
X144145000Y-113030000D02*
X146685000Y-113030000D01*
X146685000Y-113030000D02*
X147320000Y-112395000D01*
X147320000Y-112395000D02*
X147320000Y-107315000D01*
X147320000Y-107315000D02*
X147955000Y-106680000D01*
X147955000Y-106680000D02*
X148590000Y-106680000D01*
X172085000Y-85725000D02*
X172585000Y-85225000D01*
X172585000Y-85225000D02*
X181110000Y-85225000D01*
X172085000Y-106680000D02*
X172085000Y-85725000D01*
D31*
X130980000Y-114935000D02*
X128100000Y-114935000D01*
X130980000Y-118745000D02*
X128100000Y-118745000D01*
X161290000Y-92075000D02*
X152400000Y-92075000D01*
X161925000Y-92710000D02*
X161290000Y-92075000D01*
X161925000Y-116205000D02*
X161925000Y-92710000D01*
X163285000Y-117565000D02*
X161925000Y-116205000D01*
X163285000Y-119820000D02*
X163285000Y-117565000D01*
X146050000Y-91440000D02*
X144145000Y-91440000D01*
M02*
