M48
;DRILL file {KiCad 4.0.7} date Thu Nov 23 13:40:47 2017
;FORMAT={-:-/ absolute / inch / decimal}
FMAT,2
INCH,TZ
T1C0.016
T2C0.039
T3C0.125
%
G90
G05
M72
T1
X4.475Y-3.725
X4.475Y-3.8
X4.475Y-3.875
X4.475Y-4.
X4.475Y-4.075
X4.975Y-4.6
X5.1Y-4.175
X5.15Y-4.175
X5.2Y-3.975
X5.2Y-4.325
X5.25Y-4.4
X5.35Y-4.625
X5.4Y-4.675
X5.45Y-4.45
X5.5Y-3.75
X5.5Y-3.825
X5.5Y-3.95
X5.525Y-4.5
X5.55Y-3.725
X5.6Y-3.55
X5.6Y-4.45
X5.725Y-3.875
X5.75Y-3.225
X5.75Y-3.45
X5.75Y-3.5
X5.75Y-3.6
X5.75Y-4.25
X5.75Y-4.5
X5.775Y-3.55
X5.775Y-4.1
X5.8Y-4.55
X5.85Y-3.975
X5.85Y-4.3
X5.85Y-4.675
X5.875Y-3.75
X5.875Y-4.4
X5.925Y-3.375
X5.925Y-3.85
X5.925Y-4.65
X5.975Y-4.725
X6.Y-3.625
X6.Y-3.7
X6.Y-4.35
X6.Y-4.5
X6.05Y-3.45
X6.175Y-4.3
X6.175Y-4.45
X6.175Y-4.725
X6.2Y-4.15
X6.2Y-4.2
X6.275Y-4.325
X6.3Y-4.625
X6.325Y-4.55
X6.51Y-4.67
X6.525Y-4.275
X6.525Y-4.55
X6.6Y-4.625
X6.625Y-4.1
X6.625Y-4.35
X6.675Y-4.05
X6.675Y-4.4
X6.725Y-4.15
X6.725Y-4.45
X6.775Y-4.2
X6.775Y-4.275
X6.825Y-3.7
X6.875Y-3.5
X6.875Y-3.575
X6.925Y-4.325
X6.925Y-4.475
X6.925Y-4.725
X6.95Y-3.2
X6.95Y-3.275
X6.95Y-3.4
X6.95Y-3.475
X6.95Y-3.55
T2
X4.475Y-3.025
X4.475Y-3.125
X4.475Y-3.225
T3
X4.575Y-2.775
X4.575Y-4.675
X7.175Y-2.9
X7.175Y-4.55
T0
M30
