G04 #@! TF.FileFunction,Copper,L1,Top,Signal*
%FSLAX46Y46*%
G04 Gerber Fmt 4.6, Leading zero omitted, Abs format (unit mm)*
G04 Created by KiCad (PCBNEW 4.0.7) date Tue Nov 21 09:12:45 2017*
%MOMM*%
%LPD*%
G01*
G04 APERTURE LIST*
%ADD10C,0.100000*%
%ADD11R,0.850000X1.100000*%
%ADD12R,0.750000X1.100000*%
%ADD13R,2.500000X1.800000*%
%ADD14R,2.500000X1.350000*%
%ADD15R,1.900000X2.500000*%
%ADD16R,2.000000X1.000000*%
%ADD17R,1.200000X0.750000*%
%ADD18R,0.750000X1.200000*%
%ADD19R,1.143000X0.508000*%
%ADD20R,1.500000X1.500000*%
%ADD21R,3.000000X0.600000*%
%ADD22R,4.200000X0.700000*%
%ADD23R,1.700000X1.700000*%
%ADD24O,1.700000X1.700000*%
%ADD25R,1.200000X0.900000*%
%ADD26R,0.900000X1.200000*%
%ADD27C,0.600000*%
%ADD28C,0.635000*%
%ADD29C,0.250000*%
G04 APERTURE END LIST*
D10*
D11*
X113230000Y-72640000D03*
X109925000Y-72640000D03*
X112130000Y-72640000D03*
X111030000Y-72640000D03*
X115430000Y-72640000D03*
X114330000Y-72640000D03*
X116530000Y-72640000D03*
D12*
X117575000Y-72640000D03*
D13*
X119450000Y-72990000D03*
D14*
X106990000Y-72765000D03*
D15*
X116760000Y-84040000D03*
X110790000Y-84040000D03*
D16*
X106890000Y-82490000D03*
X106890000Y-78790000D03*
D17*
X134300000Y-72390000D03*
X132400000Y-72390000D03*
X134300000Y-92710000D03*
X132400000Y-92710000D03*
D18*
X121920000Y-74610000D03*
X121920000Y-72710000D03*
D19*
X136525000Y-75565000D03*
X136525000Y-78105000D03*
X136525000Y-79375000D03*
X136525000Y-80645000D03*
X136525000Y-81915000D03*
X136525000Y-83185000D03*
X136525000Y-84455000D03*
X130175000Y-84455000D03*
X130175000Y-83185000D03*
X130175000Y-81915000D03*
X130175000Y-80645000D03*
X130175000Y-79375000D03*
X130175000Y-78105000D03*
X130175000Y-76835000D03*
X130175000Y-75565000D03*
X136525000Y-76835000D03*
X136525000Y-95885000D03*
X136525000Y-98425000D03*
X136525000Y-99695000D03*
X136525000Y-100965000D03*
X136525000Y-102235000D03*
X136525000Y-103505000D03*
X136525000Y-104775000D03*
X130175000Y-104775000D03*
X130175000Y-103505000D03*
X130175000Y-102235000D03*
X130175000Y-100965000D03*
X130175000Y-99695000D03*
X130175000Y-98425000D03*
X130175000Y-97155000D03*
X130175000Y-95885000D03*
X136525000Y-97155000D03*
D20*
X160540000Y-92160000D03*
D21*
X160790000Y-96560000D03*
X160790000Y-95560000D03*
X160790000Y-93560000D03*
X160790000Y-94560000D03*
X160790000Y-100560000D03*
X160790000Y-99560000D03*
X160790000Y-97560000D03*
X160790000Y-98560000D03*
X160790000Y-102560000D03*
X160790000Y-101560000D03*
X160790000Y-103560000D03*
X160790000Y-104560000D03*
D22*
X163390000Y-92560000D03*
X163390000Y-105560000D03*
D20*
X160540000Y-105960000D03*
X111240000Y-105960000D03*
D21*
X110990000Y-101560000D03*
X110990000Y-102560000D03*
X110990000Y-104560000D03*
X110990000Y-103560000D03*
X110990000Y-97560000D03*
X110990000Y-98560000D03*
X110990000Y-100560000D03*
X110990000Y-99560000D03*
X110990000Y-95560000D03*
X110990000Y-96560000D03*
X110990000Y-94560000D03*
X110990000Y-93560000D03*
D22*
X108390000Y-105560000D03*
X108390000Y-92560000D03*
D20*
X111240000Y-92160000D03*
D23*
X158750000Y-83820000D03*
D24*
X161290000Y-83820000D03*
X163830000Y-83820000D03*
D25*
X152570000Y-77470000D03*
X154770000Y-77470000D03*
X152570000Y-73660000D03*
X154770000Y-73660000D03*
X158920000Y-87630000D03*
X161120000Y-87630000D03*
D26*
X138430000Y-94150000D03*
X138430000Y-96350000D03*
D25*
X149690000Y-77470000D03*
X147490000Y-77470000D03*
X149690000Y-73660000D03*
X147490000Y-73660000D03*
X134450000Y-107950000D03*
X132250000Y-107950000D03*
D27*
X107950000Y-94650000D03*
X107950000Y-99660000D03*
X107950000Y-103540000D03*
X163830000Y-98425000D03*
X163830000Y-103470000D03*
X163830000Y-94580000D03*
X147320000Y-78740000D03*
X132080000Y-91440000D03*
X139700000Y-93980000D03*
X107950000Y-101600000D03*
X107950000Y-96520000D03*
X129540000Y-106680000D03*
X163830000Y-96520000D03*
X163830000Y-101600000D03*
X112130000Y-74560000D03*
X123190000Y-73660000D03*
X130810000Y-72390000D03*
X146050000Y-73660000D03*
X121920000Y-76200000D03*
X133350000Y-81280000D03*
X114300000Y-76200000D03*
X146050000Y-90170000D03*
X146050000Y-96520000D03*
X144780000Y-90170000D03*
X144780000Y-96520000D03*
X133350000Y-83820000D03*
X120650000Y-92710000D03*
X128270000Y-86360000D03*
X133350000Y-86360000D03*
X125730000Y-82510000D03*
X120650000Y-91440000D03*
X142240000Y-100330000D03*
X133350000Y-78740000D03*
X124460000Y-78700000D03*
X120650000Y-90170000D03*
X144780000Y-104140000D03*
X132080000Y-77470000D03*
X149860000Y-74930000D03*
X133350000Y-74930000D03*
X128270000Y-76200000D03*
X128270000Y-95250000D03*
X134620000Y-90170000D03*
X134620000Y-95250000D03*
X138430000Y-100330000D03*
X128270000Y-101600000D03*
X125730000Y-102870000D03*
X134620000Y-102870000D03*
X120650000Y-87630000D03*
X123190000Y-87630000D03*
X120650000Y-97790000D03*
X123190000Y-97790000D03*
X147320000Y-91440000D03*
X147320000Y-96520000D03*
X138430000Y-91440000D03*
X132080000Y-96520000D03*
X138430000Y-80010000D03*
X138430000Y-83820000D03*
X133350000Y-87630000D03*
X120650000Y-93980000D03*
X120650000Y-88900000D03*
X123190000Y-88900000D03*
X129540000Y-93980000D03*
X134620000Y-100330000D03*
D28*
X157480000Y-92710000D02*
X135890000Y-92710000D01*
X138430000Y-76200000D02*
X153670000Y-76200000D01*
X157480000Y-92710000D02*
X158920000Y-91270000D01*
X158920000Y-91270000D02*
X158920000Y-87630000D01*
X154770000Y-77470000D02*
X154770000Y-82380000D01*
X154770000Y-82380000D02*
X156210000Y-83820000D01*
X156210000Y-83820000D02*
X158750000Y-83820000D01*
X136525000Y-75565000D02*
X137795000Y-75565000D01*
X153500000Y-76200000D02*
X154770000Y-77470000D01*
X137795000Y-75565000D02*
X138430000Y-76200000D01*
D29*
X154770000Y-77470000D02*
X154770000Y-77640000D01*
D28*
X136525000Y-95885000D02*
X136525000Y-93345000D01*
X135890000Y-92710000D02*
X134300000Y-92710000D01*
X136525000Y-93345000D02*
X135890000Y-92710000D01*
X136525000Y-75565000D02*
X136525000Y-73025000D01*
X135890000Y-72390000D02*
X134300000Y-72390000D01*
X136525000Y-73025000D02*
X135890000Y-72390000D01*
X158920000Y-87630000D02*
X158920000Y-83990000D01*
D29*
X158920000Y-83990000D02*
X158750000Y-83820000D01*
D28*
X110990000Y-94560000D02*
X108040000Y-94560000D01*
X108040000Y-94560000D02*
X107950000Y-94650000D01*
X110990000Y-99560000D02*
X108050000Y-99560000D01*
X108050000Y-99560000D02*
X107950000Y-99660000D01*
X110990000Y-103560000D02*
X107970000Y-103560000D01*
X107970000Y-103560000D02*
X107950000Y-103540000D01*
X160790000Y-98560000D02*
X163695000Y-98560000D01*
X163695000Y-98560000D02*
X163830000Y-98425000D01*
X160790000Y-103560000D02*
X163740000Y-103560000D01*
X163740000Y-103560000D02*
X163830000Y-103470000D01*
X160790000Y-94560000D02*
X163810000Y-94560000D01*
X163810000Y-94560000D02*
X163830000Y-94580000D01*
X147490000Y-77470000D02*
X147490000Y-78570000D01*
X147490000Y-78570000D02*
X147320000Y-78740000D01*
X130810000Y-88900000D02*
X132080000Y-90170000D01*
X130175000Y-84455000D02*
X130175000Y-85725000D01*
X130175000Y-85725000D02*
X130810000Y-86360000D01*
X130810000Y-86360000D02*
X130810000Y-88900000D01*
X132080000Y-90170000D02*
X132080000Y-91440000D01*
X132400000Y-92710000D02*
X132400000Y-91760000D01*
X132400000Y-91760000D02*
X132080000Y-91440000D01*
X138430000Y-94150000D02*
X139530000Y-94150000D01*
D29*
X139530000Y-94150000D02*
X139700000Y-93980000D01*
D28*
X110990000Y-101560000D02*
X107990000Y-101560000D01*
D29*
X107990000Y-101560000D02*
X107950000Y-101600000D01*
D28*
X110990000Y-96560000D02*
X107990000Y-96560000D01*
D29*
X107990000Y-96560000D02*
X107950000Y-96520000D01*
D28*
X130810000Y-107950000D02*
X129540000Y-106680000D01*
X132250000Y-107950000D02*
X130810000Y-107950000D01*
X129540000Y-105410000D02*
X129540000Y-106680000D01*
X130175000Y-104775000D02*
X129540000Y-105410000D01*
X160790000Y-96560000D02*
X163790000Y-96560000D01*
X163790000Y-96560000D02*
X163830000Y-96520000D01*
X160790000Y-101560000D02*
X163790000Y-101560000D01*
X163790000Y-101560000D02*
X163830000Y-101600000D01*
X112130000Y-72640000D02*
X112130000Y-74560000D01*
D29*
X121920000Y-72710000D02*
X122240000Y-72710000D01*
D28*
X122240000Y-72710000D02*
X123190000Y-73660000D01*
X132400000Y-72390000D02*
X130810000Y-72390000D01*
X147490000Y-73660000D02*
X146050000Y-73660000D01*
X121920000Y-74610000D02*
X121920000Y-76200000D01*
X136525000Y-80645000D02*
X133985000Y-80645000D01*
X133985000Y-80645000D02*
X133350000Y-81280000D01*
X114330000Y-76170000D02*
X114330000Y-72640000D01*
X114300000Y-76200000D02*
X114330000Y-76170000D01*
X145415000Y-78105000D02*
X136525000Y-78105000D01*
X146050000Y-78740000D02*
X146050000Y-90170000D01*
X146050000Y-97790000D02*
X146050000Y-96520000D01*
X147820000Y-99560000D02*
X160790000Y-99560000D01*
X146050000Y-97790000D02*
X147820000Y-99560000D01*
X145415000Y-78105000D02*
X146050000Y-78740000D01*
D29*
X142875000Y-81915000D02*
X136525000Y-81915000D01*
X144780000Y-83820000D02*
X144780000Y-90170000D01*
X144780000Y-97790000D02*
X144780000Y-96520000D01*
X160790000Y-100560000D02*
X147550000Y-100560000D01*
X144780000Y-83820000D02*
X142875000Y-81915000D01*
X147550000Y-100560000D02*
X144780000Y-97790000D01*
X120650000Y-92710000D02*
X119380000Y-92710000D01*
X110990000Y-97560000D02*
X114530000Y-97560000D01*
X133985000Y-83185000D02*
X136525000Y-83185000D01*
X133350000Y-83820000D02*
X133985000Y-83185000D01*
X114530000Y-97560000D02*
X119380000Y-92710000D01*
X123190000Y-86360000D02*
X128270000Y-86360000D01*
X115430000Y-78600000D02*
X123190000Y-86360000D01*
X135890000Y-86360000D02*
X133350000Y-86360000D01*
X136525000Y-85725000D02*
X136525000Y-84455000D01*
X135890000Y-86360000D02*
X136525000Y-85725000D01*
X115430000Y-72640000D02*
X115430000Y-78600000D01*
X130175000Y-83185000D02*
X127635000Y-83185000D01*
X127635000Y-83185000D02*
X127000000Y-83820000D01*
X127000000Y-83820000D02*
X121920000Y-83820000D01*
X121920000Y-83820000D02*
X116530000Y-78430000D01*
X116530000Y-78430000D02*
X116530000Y-72640000D01*
X126365000Y-81915000D02*
X125730000Y-82510000D01*
X125730000Y-82550000D02*
X125730000Y-82510000D01*
X120650000Y-91440000D02*
X118110000Y-91440000D01*
X126365000Y-81915000D02*
X130175000Y-81915000D01*
X110990000Y-95560000D02*
X113990000Y-95560000D01*
X113990000Y-95560000D02*
X118110000Y-91440000D01*
X130175000Y-80645000D02*
X131445000Y-80645000D01*
X144470000Y-102560000D02*
X160790000Y-102560000D01*
X142240000Y-100330000D02*
X144470000Y-102560000D01*
X131445000Y-80645000D02*
X133350000Y-78740000D01*
X130175000Y-79375000D02*
X128905000Y-79375000D01*
X128905000Y-79375000D02*
X128270000Y-80010000D01*
X128270000Y-80010000D02*
X119380000Y-80010000D01*
X119380000Y-80010000D02*
X117575000Y-78205000D01*
X117575000Y-78205000D02*
X117575000Y-72640000D01*
X125095000Y-78105000D02*
X125055000Y-78105000D01*
X125055000Y-78105000D02*
X124460000Y-78700000D01*
X120650000Y-90170000D02*
X116840000Y-90170000D01*
X125095000Y-78105000D02*
X130175000Y-78105000D01*
X110990000Y-93560000D02*
X113450000Y-93560000D01*
X113450000Y-93560000D02*
X116840000Y-90170000D01*
X130175000Y-76835000D02*
X131445000Y-76835000D01*
X145200000Y-104560000D02*
X160790000Y-104560000D01*
X144780000Y-104140000D02*
X145200000Y-104560000D01*
X131445000Y-76835000D02*
X132080000Y-77470000D01*
X154770000Y-73660000D02*
X154940000Y-73660000D01*
X154940000Y-73660000D02*
X156210000Y-74930000D01*
X161290000Y-82550000D02*
X161290000Y-83820000D01*
X160020000Y-81280000D02*
X161290000Y-82550000D01*
X158750000Y-81280000D02*
X160020000Y-81280000D01*
X157480000Y-81280000D02*
X158750000Y-81280000D01*
X156210000Y-80010000D02*
X157480000Y-81280000D01*
X156210000Y-74930000D02*
X156210000Y-80010000D01*
X130175000Y-75565000D02*
X132715000Y-75565000D01*
X153670000Y-74930000D02*
X154770000Y-73830000D01*
X149860000Y-74930000D02*
X153670000Y-74930000D01*
X132715000Y-75565000D02*
X133350000Y-74930000D01*
X154770000Y-73830000D02*
X154770000Y-73660000D01*
X130175000Y-75565000D02*
X128905000Y-75565000D01*
X128905000Y-75565000D02*
X128270000Y-76200000D01*
X130175000Y-95885000D02*
X128905000Y-95885000D01*
X128905000Y-95885000D02*
X128270000Y-95250000D01*
X161120000Y-87630000D02*
X161120000Y-83990000D01*
X161120000Y-83990000D02*
X161290000Y-83820000D01*
X136525000Y-97155000D02*
X135255000Y-97155000D01*
X135255000Y-76835000D02*
X136525000Y-76835000D01*
X134620000Y-77470000D02*
X135255000Y-76835000D01*
X134620000Y-78740000D02*
X134620000Y-77470000D01*
X132080000Y-81280000D02*
X134620000Y-78740000D01*
X132080000Y-87630000D02*
X132080000Y-81280000D01*
X134620000Y-90170000D02*
X132080000Y-87630000D01*
X134620000Y-96520000D02*
X134620000Y-95250000D01*
X135255000Y-97155000D02*
X134620000Y-96520000D01*
X138430000Y-96350000D02*
X138430000Y-96520000D01*
X138430000Y-96520000D02*
X137795000Y-97155000D01*
X137795000Y-97155000D02*
X136525000Y-97155000D01*
X141390000Y-93560000D02*
X160790000Y-93560000D01*
X139065000Y-98425000D02*
X136525000Y-98425000D01*
X139700000Y-97790000D02*
X139065000Y-98425000D01*
X139700000Y-95250000D02*
X139700000Y-97790000D01*
X141390000Y-93560000D02*
X139700000Y-95250000D01*
X136525000Y-99695000D02*
X137795000Y-99695000D01*
X137795000Y-99695000D02*
X138430000Y-100330000D01*
X125310000Y-104560000D02*
X110990000Y-104560000D01*
X125310000Y-104560000D02*
X128270000Y-101600000D01*
X141930000Y-95560000D02*
X160790000Y-95560000D01*
X140335000Y-102235000D02*
X136525000Y-102235000D01*
X140970000Y-101600000D02*
X140335000Y-102235000D01*
X140970000Y-96520000D02*
X140970000Y-101600000D01*
X141930000Y-95560000D02*
X140970000Y-96520000D01*
X110990000Y-102560000D02*
X112740000Y-102560000D01*
X112740000Y-102560000D02*
X113050000Y-102870000D01*
X113050000Y-102870000D02*
X125730000Y-102870000D01*
X136525000Y-103505000D02*
X135255000Y-103505000D01*
X135255000Y-103505000D02*
X134620000Y-102870000D01*
X115570000Y-87630000D02*
X120650000Y-87630000D01*
X114300000Y-86360000D02*
X115570000Y-87630000D01*
X111030000Y-72640000D02*
X111030000Y-76740000D01*
X114300000Y-80010000D02*
X114300000Y-86360000D01*
X111030000Y-76740000D02*
X114300000Y-80010000D01*
X123190000Y-87630000D02*
X128270000Y-87630000D01*
X128270000Y-87630000D02*
X130810000Y-90170000D01*
X130810000Y-90170000D02*
X130810000Y-93980000D01*
X130810000Y-93980000D02*
X133350000Y-96520000D01*
X133350000Y-96520000D02*
X133350000Y-102870000D01*
X133350000Y-102870000D02*
X135255000Y-104775000D01*
X135255000Y-104775000D02*
X136525000Y-104775000D01*
X134450000Y-107950000D02*
X134450000Y-105240000D01*
X132715000Y-103505000D02*
X130175000Y-103505000D01*
X134450000Y-105240000D02*
X132715000Y-103505000D01*
X130175000Y-99695000D02*
X128905000Y-99695000D01*
X128905000Y-99695000D02*
X128270000Y-100330000D01*
X128270000Y-100330000D02*
X123190000Y-100330000D01*
X123190000Y-100330000D02*
X121920000Y-99060000D01*
X121920000Y-99060000D02*
X121920000Y-86360000D01*
X121920000Y-86360000D02*
X113230000Y-77670000D01*
X113230000Y-77670000D02*
X113230000Y-72640000D01*
X120650000Y-97790000D02*
X117880000Y-100560000D01*
X128905000Y-98425000D02*
X128270000Y-97790000D01*
X128270000Y-97790000D02*
X123190000Y-97790000D01*
X130175000Y-98425000D02*
X128905000Y-98425000D01*
X110990000Y-100560000D02*
X117880000Y-100560000D01*
X138430000Y-91440000D02*
X147320000Y-91440000D01*
X160790000Y-97560000D02*
X148360000Y-97560000D01*
X148360000Y-97560000D02*
X147320000Y-96520000D01*
X130175000Y-97155000D02*
X131445000Y-97155000D01*
X131445000Y-97155000D02*
X132080000Y-96520000D01*
X160560000Y-97790000D02*
X160790000Y-97560000D01*
D28*
X136525000Y-79375000D02*
X137795000Y-79375000D01*
X137795000Y-79375000D02*
X138430000Y-80010000D01*
X138430000Y-85090000D02*
X138430000Y-83820000D01*
X135890000Y-87630000D02*
X138430000Y-85090000D01*
X133350000Y-87630000D02*
X135890000Y-87630000D01*
X116070000Y-98560000D02*
X120650000Y-93980000D01*
X116070000Y-98560000D02*
X110990000Y-98560000D01*
D29*
X152570000Y-77470000D02*
X149690000Y-77470000D01*
X152570000Y-73660000D02*
X149690000Y-73660000D01*
X115570000Y-88900000D02*
X120650000Y-88900000D01*
X113030000Y-86360000D02*
X115570000Y-88900000D01*
X109925000Y-76905000D02*
X109925000Y-72640000D01*
X113030000Y-80010000D02*
X109925000Y-76905000D01*
X113030000Y-86360000D02*
X113030000Y-80010000D01*
X123190000Y-88900000D02*
X128270000Y-88900000D01*
X129540000Y-93980000D02*
X129540000Y-90170000D01*
X136525000Y-100965000D02*
X135255000Y-100965000D01*
X129540000Y-90170000D02*
X128270000Y-88900000D01*
X135255000Y-100965000D02*
X134620000Y-100330000D01*
M02*
