G04 #@! TF.FileFunction,Soldermask,Bot*
%FSLAX46Y46*%
G04 Gerber Fmt 4.6, Leading zero omitted, Abs format (unit mm)*
G04 Created by KiCad (PCBNEW 4.0.7) date Thu Nov 23 12:59:31 2017*
%MOMM*%
%LPD*%
G01*
G04 APERTURE LIST*
%ADD10C,0.100000*%
G04 APERTURE END LIST*
D10*
G36*
X115988548Y-116330327D02*
X116458447Y-116333607D01*
X116921998Y-116428760D01*
X117358234Y-116612137D01*
X117750546Y-116876755D01*
X118083991Y-117212536D01*
X118345860Y-117606682D01*
X118526190Y-118044194D01*
X118618086Y-118508304D01*
X118618086Y-118508307D01*
X118618103Y-118508393D01*
X118610556Y-119048892D01*
X118610537Y-119048975D01*
X118610537Y-119048983D01*
X118505717Y-119510345D01*
X118313244Y-119942648D01*
X118040466Y-120329336D01*
X117697780Y-120655671D01*
X117298235Y-120909230D01*
X116857040Y-121080358D01*
X116391019Y-121162530D01*
X115917911Y-121152620D01*
X115455733Y-121051003D01*
X115022100Y-120861554D01*
X114633519Y-120591483D01*
X114304797Y-120251082D01*
X114048453Y-119853313D01*
X113874251Y-119413331D01*
X113788827Y-118947894D01*
X113795435Y-118474720D01*
X113893820Y-118011853D01*
X114080240Y-117576904D01*
X114347589Y-117186450D01*
X114685690Y-116855357D01*
X115081657Y-116596244D01*
X115520413Y-116418975D01*
X115985245Y-116330304D01*
X115988548Y-116330327D01*
X115988548Y-116330327D01*
G37*
G36*
X182028548Y-113155327D02*
X182498447Y-113158607D01*
X182961998Y-113253760D01*
X183398234Y-113437137D01*
X183790546Y-113701755D01*
X184123991Y-114037536D01*
X184385860Y-114431682D01*
X184566190Y-114869194D01*
X184658086Y-115333304D01*
X184658086Y-115333307D01*
X184658103Y-115333393D01*
X184650556Y-115873892D01*
X184650537Y-115873975D01*
X184650537Y-115873983D01*
X184545717Y-116335345D01*
X184353244Y-116767648D01*
X184080466Y-117154336D01*
X183737780Y-117480671D01*
X183338235Y-117734230D01*
X182897040Y-117905358D01*
X182431019Y-117987530D01*
X181957911Y-117977620D01*
X181495733Y-117876003D01*
X181062100Y-117686554D01*
X180673519Y-117416483D01*
X180344797Y-117076082D01*
X180088453Y-116678313D01*
X179914251Y-116238331D01*
X179828827Y-115772894D01*
X179835435Y-115299720D01*
X179933820Y-114836853D01*
X180120240Y-114401904D01*
X180387589Y-114011450D01*
X180725690Y-113680357D01*
X181121657Y-113421244D01*
X181560413Y-113243975D01*
X182025245Y-113155304D01*
X182028548Y-113155327D01*
X182028548Y-113155327D01*
G37*
G36*
X113673661Y-80938027D02*
X113682854Y-80938091D01*
X113682858Y-80938091D01*
X113683368Y-80938095D01*
X113872857Y-80959350D01*
X114054608Y-81017005D01*
X114221700Y-81108864D01*
X114367767Y-81231429D01*
X114487246Y-81380031D01*
X114575586Y-81549009D01*
X114629422Y-81731928D01*
X114629422Y-81731933D01*
X114629424Y-81731938D01*
X114646704Y-81921824D01*
X114626776Y-82111438D01*
X114626772Y-82111450D01*
X114626772Y-82111453D01*
X114570387Y-82293603D01*
X114479697Y-82461331D01*
X114358155Y-82608251D01*
X114210391Y-82728764D01*
X114042033Y-82818281D01*
X113859494Y-82873393D01*
X113669727Y-82892000D01*
X113660273Y-82892000D01*
X113656339Y-82891973D01*
X113647146Y-82891909D01*
X113647142Y-82891909D01*
X113646632Y-82891905D01*
X113457143Y-82870650D01*
X113275392Y-82812995D01*
X113108300Y-82721136D01*
X112962233Y-82598571D01*
X112842754Y-82449969D01*
X112754414Y-82280991D01*
X112700578Y-82098072D01*
X112700578Y-82098067D01*
X112700576Y-82098062D01*
X112683296Y-81908176D01*
X112703224Y-81718562D01*
X112703228Y-81718550D01*
X112703228Y-81718547D01*
X112759613Y-81536397D01*
X112850303Y-81368669D01*
X112971845Y-81221749D01*
X113119609Y-81101236D01*
X113287967Y-81011719D01*
X113470506Y-80956607D01*
X113660273Y-80938000D01*
X113669727Y-80938000D01*
X113673661Y-80938027D01*
X113673661Y-80938027D01*
G37*
G36*
X113673661Y-78398027D02*
X113682854Y-78398091D01*
X113682858Y-78398091D01*
X113683368Y-78398095D01*
X113872857Y-78419350D01*
X114054608Y-78477005D01*
X114221700Y-78568864D01*
X114367767Y-78691429D01*
X114487246Y-78840031D01*
X114575586Y-79009009D01*
X114629422Y-79191928D01*
X114629422Y-79191933D01*
X114629424Y-79191938D01*
X114646704Y-79381824D01*
X114626776Y-79571438D01*
X114626772Y-79571450D01*
X114626772Y-79571453D01*
X114570387Y-79753603D01*
X114479697Y-79921331D01*
X114358155Y-80068251D01*
X114210391Y-80188764D01*
X114042033Y-80278281D01*
X113859494Y-80333393D01*
X113669727Y-80352000D01*
X113660273Y-80352000D01*
X113656339Y-80351973D01*
X113647146Y-80351909D01*
X113647142Y-80351909D01*
X113646632Y-80351905D01*
X113457143Y-80330650D01*
X113275392Y-80272995D01*
X113108300Y-80181136D01*
X112962233Y-80058571D01*
X112842754Y-79909969D01*
X112754414Y-79740991D01*
X112700578Y-79558072D01*
X112700578Y-79558067D01*
X112700576Y-79558062D01*
X112683296Y-79368176D01*
X112703224Y-79178562D01*
X112703228Y-79178550D01*
X112703228Y-79178547D01*
X112759613Y-78996397D01*
X112850303Y-78828669D01*
X112971845Y-78681749D01*
X113119609Y-78561236D01*
X113287967Y-78471719D01*
X113470506Y-78416607D01*
X113660273Y-78398000D01*
X113669727Y-78398000D01*
X113673661Y-78398027D01*
X113673661Y-78398027D01*
G37*
G36*
X114642000Y-77812000D02*
X112688000Y-77812000D01*
X112688000Y-75858000D01*
X114642000Y-75858000D01*
X114642000Y-77812000D01*
X114642000Y-77812000D01*
G37*
G36*
X182028548Y-71245327D02*
X182498447Y-71248607D01*
X182961998Y-71343760D01*
X183398234Y-71527137D01*
X183790546Y-71791755D01*
X184123991Y-72127536D01*
X184385860Y-72521682D01*
X184566190Y-72959194D01*
X184658086Y-73423304D01*
X184658086Y-73423307D01*
X184658103Y-73423393D01*
X184650556Y-73963892D01*
X184650537Y-73963975D01*
X184650537Y-73963983D01*
X184545717Y-74425345D01*
X184353244Y-74857648D01*
X184080466Y-75244336D01*
X183737780Y-75570671D01*
X183338235Y-75824230D01*
X182897040Y-75995358D01*
X182431019Y-76077530D01*
X181957911Y-76067620D01*
X181495733Y-75966003D01*
X181062100Y-75776554D01*
X180673519Y-75506483D01*
X180344797Y-75166082D01*
X180088453Y-74768313D01*
X179914251Y-74328331D01*
X179828827Y-73862894D01*
X179835435Y-73389720D01*
X179933820Y-72926853D01*
X180120240Y-72491904D01*
X180387589Y-72101450D01*
X180725690Y-71770357D01*
X181121657Y-71511244D01*
X181560413Y-71333975D01*
X182025245Y-71245304D01*
X182028548Y-71245327D01*
X182028548Y-71245327D01*
G37*
G36*
X115988548Y-68070327D02*
X116458447Y-68073607D01*
X116921998Y-68168760D01*
X117358234Y-68352137D01*
X117750546Y-68616755D01*
X118083991Y-68952536D01*
X118345860Y-69346682D01*
X118526190Y-69784194D01*
X118618086Y-70248304D01*
X118618086Y-70248307D01*
X118618103Y-70248393D01*
X118610556Y-70788892D01*
X118610537Y-70788975D01*
X118610537Y-70788983D01*
X118505717Y-71250345D01*
X118313244Y-71682648D01*
X118040466Y-72069336D01*
X117697780Y-72395671D01*
X117298235Y-72649230D01*
X116857040Y-72820358D01*
X116391019Y-72902530D01*
X115917911Y-72892620D01*
X115455733Y-72791003D01*
X115022100Y-72601554D01*
X114633519Y-72331483D01*
X114304797Y-71991082D01*
X114048453Y-71593313D01*
X113874251Y-71153331D01*
X113788827Y-70687894D01*
X113795435Y-70214720D01*
X113893820Y-69751853D01*
X114080240Y-69316904D01*
X114347589Y-68926450D01*
X114685690Y-68595357D01*
X115081657Y-68336244D01*
X115520413Y-68158975D01*
X115985245Y-68070304D01*
X115988548Y-68070327D01*
X115988548Y-68070327D01*
G37*
M02*
