G04 #@! TF.FileFunction,Soldermask,Bot*
%FSLAX46Y46*%
G04 Gerber Fmt 4.6, Leading zero omitted, Abs format (unit mm)*
G04 Created by KiCad (PCBNEW 4.0.7) date Thu Nov 23 13:57:06 2017*
%MOMM*%
%LPD*%
G01*
G04 APERTURE LIST*
%ADD10C,0.100000*%
G04 APERTURE END LIST*
D10*
G36*
X170600000Y-114650000D02*
X166412700Y-114650000D01*
X166409162Y-114650503D01*
X166405904Y-114651971D01*
X166403184Y-114654290D01*
X166401218Y-114657274D01*
X166400160Y-114660687D01*
X166400000Y-114662700D01*
X166400000Y-115450000D01*
X164600000Y-115450000D01*
X164600000Y-113650000D01*
X170600000Y-113650000D01*
X170600000Y-114650000D01*
X170600000Y-114650000D01*
G37*
G36*
X167400000Y-113600000D02*
X164100000Y-113600000D01*
X164100000Y-112700000D01*
X167400000Y-112700000D01*
X167400000Y-113600000D01*
X167400000Y-113600000D01*
G37*
G36*
X167400000Y-112600000D02*
X164100000Y-112600000D01*
X164100000Y-111700000D01*
X167400000Y-111700000D01*
X167400000Y-112600000D01*
X167400000Y-112600000D01*
G37*
G36*
X167400000Y-111600000D02*
X164100000Y-111600000D01*
X164100000Y-110700000D01*
X167400000Y-110700000D01*
X167400000Y-111600000D01*
X167400000Y-111600000D01*
G37*
G36*
X167400000Y-110600000D02*
X164100000Y-110600000D01*
X164100000Y-109700000D01*
X167400000Y-109700000D01*
X167400000Y-110600000D01*
X167400000Y-110600000D01*
G37*
G36*
X167400000Y-109600000D02*
X164100000Y-109600000D01*
X164100000Y-108700000D01*
X167400000Y-108700000D01*
X167400000Y-109600000D01*
X167400000Y-109600000D01*
G37*
G36*
X157350000Y-109350000D02*
X156300000Y-109350000D01*
X156300000Y-107850000D01*
X157350000Y-107850000D01*
X157350000Y-109350000D01*
X157350000Y-109350000D01*
G37*
G36*
X167400000Y-108600000D02*
X164100000Y-108600000D01*
X164100000Y-107700000D01*
X167400000Y-107700000D01*
X167400000Y-108600000D01*
X167400000Y-108600000D01*
G37*
G36*
X167400000Y-107600000D02*
X164100000Y-107600000D01*
X164100000Y-106700000D01*
X167400000Y-106700000D01*
X167400000Y-107600000D01*
X167400000Y-107600000D01*
G37*
G36*
X157350000Y-107450000D02*
X156300000Y-107450000D01*
X156300000Y-105950000D01*
X157350000Y-105950000D01*
X157350000Y-107450000D01*
X157350000Y-107450000D01*
G37*
G36*
X167400000Y-106600000D02*
X164100000Y-106600000D01*
X164100000Y-105700000D01*
X167400000Y-105700000D01*
X167400000Y-106600000D01*
X167400000Y-106600000D01*
G37*
G36*
X167400000Y-105600000D02*
X164100000Y-105600000D01*
X164100000Y-104700000D01*
X167400000Y-104700000D01*
X167400000Y-105600000D01*
X167400000Y-105600000D01*
G37*
G36*
X167400000Y-104600000D02*
X164100000Y-104600000D01*
X164100000Y-103700000D01*
X167400000Y-103700000D01*
X167400000Y-104600000D01*
X167400000Y-104600000D01*
G37*
G36*
X167400000Y-103600000D02*
X164100000Y-103600000D01*
X164100000Y-102700000D01*
X167400000Y-102700000D01*
X167400000Y-103600000D01*
X167400000Y-103600000D01*
G37*
G36*
X167400000Y-102600000D02*
X164100000Y-102600000D01*
X164100000Y-101700000D01*
X167400000Y-101700000D01*
X167400000Y-102600000D01*
X167400000Y-102600000D01*
G37*
G36*
X166400000Y-100637300D02*
X166400503Y-100640838D01*
X166401971Y-100644096D01*
X166404290Y-100646816D01*
X166407274Y-100648782D01*
X166410687Y-100649840D01*
X166412700Y-100650000D01*
X170600000Y-100650000D01*
X170600000Y-101650000D01*
X164600000Y-101650000D01*
X164600000Y-99850000D01*
X166400000Y-99850000D01*
X166400000Y-100637300D01*
X166400000Y-100637300D01*
G37*
M02*
