G04 #@! TF.FileFunction,Copper,L2,Bot,Signal*
%FSLAX46Y46*%
G04 Gerber Fmt 4.6, Leading zero omitted, Abs format (unit mm)*
G04 Created by KiCad (PCBNEW 4.0.7) date Thu Nov 23 13:57:06 2017*
%MOMM*%
%LPD*%
G01*
G04 APERTURE LIST*
%ADD10C,0.100000*%
%ADD11R,0.750000X1.200000*%
%ADD12R,1.500000X1.500000*%
%ADD13R,3.000000X0.600000*%
%ADD14R,4.200000X0.700000*%
%ADD15C,0.900000*%
%ADD16C,0.600000*%
%ADD17C,0.635000*%
%ADD18C,0.250000*%
%ADD19C,0.254000*%
G04 APERTURE END LIST*
D10*
D11*
X156825000Y-106700000D03*
X156825000Y-108600000D03*
D12*
X165500000Y-114550000D03*
D13*
X165750000Y-110150000D03*
X165750000Y-111150000D03*
X165750000Y-113150000D03*
X165750000Y-112150000D03*
X165750000Y-106150000D03*
X165750000Y-107150000D03*
X165750000Y-109150000D03*
X165750000Y-108150000D03*
X165750000Y-104150000D03*
X165750000Y-105150000D03*
X165750000Y-103150000D03*
X165750000Y-102150000D03*
D14*
X168350000Y-114150000D03*
X168350000Y-101150000D03*
D12*
X165500000Y-100750000D03*
D15*
X162250000Y-107650000D03*
X155100000Y-107650000D03*
X134250000Y-105150000D03*
D16*
X168225000Y-107150000D03*
X167750000Y-105150000D03*
X167750000Y-103150000D03*
X167750000Y-112150000D03*
X167750000Y-110150000D03*
X171000000Y-104150000D03*
X172225000Y-102150000D03*
X161000000Y-108650000D03*
X170000000Y-106150000D03*
X159500000Y-109750000D03*
X169000000Y-107650000D03*
D17*
X156825000Y-106700000D02*
X155815000Y-106700000D01*
X165725000Y-107150000D02*
X162750000Y-107150000D01*
X162750000Y-107150000D02*
X162250000Y-107650000D01*
X155100000Y-106700000D02*
X155100000Y-107650000D01*
X155815000Y-106700000D02*
X155100000Y-106700000D01*
D18*
X134250000Y-103150000D02*
X134250000Y-105150000D01*
X135250000Y-103150000D02*
X134250000Y-103150000D01*
X167750000Y-103150000D02*
X135250000Y-103150000D01*
X167750000Y-107150000D02*
X168225000Y-107150000D01*
X165560027Y-108314973D02*
X165725000Y-108150000D01*
X167750000Y-107150000D02*
X167750000Y-105150000D01*
X167750000Y-108150000D02*
X165725000Y-108150000D01*
X167750000Y-103150000D02*
X167750000Y-105150000D01*
X167750000Y-107150000D02*
X167750000Y-108150000D01*
X165725000Y-112150000D02*
X156825000Y-112150000D01*
X156825000Y-112150000D02*
X156825000Y-108600000D01*
X165525000Y-105350000D02*
X165725000Y-105150000D01*
X167750000Y-112150000D02*
X165725000Y-112150000D01*
X167750000Y-110150000D02*
X165725000Y-110150000D01*
X167750000Y-105150000D02*
X165725000Y-105150000D01*
X167750000Y-103150000D02*
X165725000Y-103150000D01*
X171000000Y-111150000D02*
X165725000Y-111150000D01*
X171000000Y-104150000D02*
X171000000Y-111150000D01*
X172225000Y-113150000D02*
X165725000Y-113150000D01*
X172225000Y-102150000D02*
X172225000Y-113150000D01*
X161000000Y-106150000D02*
X161000000Y-108650000D01*
X165725000Y-106150000D02*
X161000000Y-106150000D01*
X170000000Y-109150000D02*
X165725000Y-109150000D01*
X170000000Y-106150000D02*
X170000000Y-109150000D01*
X165725000Y-104150000D02*
X159500000Y-104150000D01*
X159500000Y-104150000D02*
X159500000Y-109750000D01*
X169000000Y-102150000D02*
X169000000Y-107650000D01*
X167749002Y-102150000D02*
X169000000Y-102150000D01*
X165725000Y-102150000D02*
X167749002Y-102150000D01*
D19*
G36*
X163773750Y-103023000D02*
X163963818Y-103023000D01*
X163998110Y-103046431D01*
X164250000Y-103097440D01*
X167250000Y-103097440D01*
X167485317Y-103053162D01*
X167532190Y-103023000D01*
X167726250Y-103023000D01*
X167839250Y-102910000D01*
X168240000Y-102910000D01*
X168240000Y-107087537D01*
X168207808Y-107119673D01*
X168065162Y-107463201D01*
X168064838Y-107835167D01*
X168206883Y-108178943D01*
X168417572Y-108390000D01*
X167839250Y-108390000D01*
X167726250Y-108277000D01*
X167536182Y-108277000D01*
X167501890Y-108253569D01*
X167250000Y-108202560D01*
X164250000Y-108202560D01*
X164014683Y-108246838D01*
X163967810Y-108277000D01*
X163773750Y-108277000D01*
X163615000Y-108435750D01*
X163615000Y-108576309D01*
X163643870Y-108646007D01*
X163602560Y-108850000D01*
X163602560Y-109450000D01*
X163641858Y-109658850D01*
X163615000Y-109723691D01*
X163615000Y-109864250D01*
X163773750Y-110023000D01*
X163963818Y-110023000D01*
X163998110Y-110046431D01*
X164250000Y-110097440D01*
X167250000Y-110097440D01*
X167485317Y-110053162D01*
X167532190Y-110023000D01*
X167726250Y-110023000D01*
X167839250Y-109910000D01*
X170000000Y-109910000D01*
X170240000Y-109862261D01*
X170240000Y-110390000D01*
X167839250Y-110390000D01*
X167726250Y-110277000D01*
X167536182Y-110277000D01*
X167501890Y-110253569D01*
X167250000Y-110202560D01*
X164250000Y-110202560D01*
X164014683Y-110246838D01*
X163967810Y-110277000D01*
X163773750Y-110277000D01*
X163615000Y-110435750D01*
X163615000Y-110576309D01*
X163643870Y-110646007D01*
X163602560Y-110850000D01*
X163602560Y-111450000D01*
X163641858Y-111658850D01*
X163615000Y-111723691D01*
X163615000Y-111864250D01*
X163773750Y-112023000D01*
X163963818Y-112023000D01*
X163998110Y-112046431D01*
X164250000Y-112097440D01*
X167250000Y-112097440D01*
X167485317Y-112053162D01*
X167532190Y-112023000D01*
X167726250Y-112023000D01*
X167839250Y-111910000D01*
X171000000Y-111910000D01*
X171290839Y-111852148D01*
X171465000Y-111735778D01*
X171465000Y-112390000D01*
X167839250Y-112390000D01*
X167726250Y-112277000D01*
X167536182Y-112277000D01*
X167501890Y-112253569D01*
X167250000Y-112202560D01*
X164250000Y-112202560D01*
X164014683Y-112246838D01*
X163967810Y-112277000D01*
X163773750Y-112277000D01*
X163627750Y-112423000D01*
X138827091Y-112423000D01*
X138352046Y-111947954D01*
X138121705Y-111794046D01*
X137850000Y-111740000D01*
X136850000Y-111740000D01*
X136781416Y-111753642D01*
X136634950Y-111768866D01*
X136634945Y-111768868D01*
X136634942Y-111768868D01*
X136495671Y-111826557D01*
X136379010Y-111874880D01*
X136379008Y-111874882D01*
X136379003Y-111874884D01*
X136314118Y-111918239D01*
X136216180Y-112016180D01*
X136118239Y-112114118D01*
X136074884Y-112179002D01*
X136074881Y-112179009D01*
X136074880Y-112179010D01*
X136051557Y-112235317D01*
X135973815Y-112423000D01*
X135427092Y-112423000D01*
X134352046Y-111347954D01*
X134121705Y-111194046D01*
X133850000Y-111140000D01*
X129519931Y-111140000D01*
X129469943Y-111130057D01*
X129460000Y-111080069D01*
X129460000Y-109935167D01*
X158564838Y-109935167D01*
X158706883Y-110278943D01*
X158969673Y-110542192D01*
X159313201Y-110684838D01*
X159685167Y-110685162D01*
X160028943Y-110543117D01*
X160292192Y-110280327D01*
X160434838Y-109936799D01*
X160435162Y-109564833D01*
X160324328Y-109296593D01*
X160469673Y-109442192D01*
X160813201Y-109584838D01*
X161185167Y-109585162D01*
X161528943Y-109443117D01*
X161792192Y-109180327D01*
X161934838Y-108836799D01*
X161934962Y-108694005D01*
X162033233Y-108734811D01*
X162464873Y-108735188D01*
X162863800Y-108570354D01*
X163169282Y-108265405D01*
X163236926Y-108102500D01*
X165725000Y-108102500D01*
X165750438Y-108097440D01*
X167250000Y-108097440D01*
X167485317Y-108053162D01*
X167532190Y-108023000D01*
X167726250Y-108023000D01*
X167885000Y-107864250D01*
X167885000Y-107723691D01*
X167856130Y-107653993D01*
X167897440Y-107450000D01*
X167897440Y-106850000D01*
X167858426Y-106642658D01*
X167897440Y-106450000D01*
X167897440Y-105850000D01*
X167858142Y-105641150D01*
X167885000Y-105576309D01*
X167885000Y-105435750D01*
X167726250Y-105277000D01*
X167536182Y-105277000D01*
X167501890Y-105253569D01*
X167250000Y-105202560D01*
X164250000Y-105202560D01*
X164014683Y-105246838D01*
X163967810Y-105277000D01*
X163773750Y-105277000D01*
X163660750Y-105390000D01*
X161000000Y-105390000D01*
X160709161Y-105447852D01*
X160462599Y-105612599D01*
X160297852Y-105859161D01*
X160260000Y-106049454D01*
X160260000Y-104910000D01*
X163660750Y-104910000D01*
X163773750Y-105023000D01*
X163963818Y-105023000D01*
X163998110Y-105046431D01*
X164250000Y-105097440D01*
X167250000Y-105097440D01*
X167485317Y-105053162D01*
X167532190Y-105023000D01*
X167726250Y-105023000D01*
X167885000Y-104864250D01*
X167885000Y-104723691D01*
X167856130Y-104653993D01*
X167897440Y-104450000D01*
X167897440Y-103850000D01*
X167858142Y-103641150D01*
X167885000Y-103576309D01*
X167885000Y-103435750D01*
X167726250Y-103277000D01*
X167536182Y-103277000D01*
X167501890Y-103253569D01*
X167250000Y-103202560D01*
X164250000Y-103202560D01*
X164014683Y-103246838D01*
X163967810Y-103277000D01*
X163773750Y-103277000D01*
X163660750Y-103390000D01*
X159500000Y-103390000D01*
X159209161Y-103447852D01*
X158962599Y-103612599D01*
X158797852Y-103859161D01*
X158740000Y-104150000D01*
X158740000Y-109187537D01*
X158707808Y-109219673D01*
X158565162Y-109563201D01*
X158564838Y-109935167D01*
X129460000Y-109935167D01*
X129460000Y-108885750D01*
X155815000Y-108885750D01*
X155815000Y-109326309D01*
X155911673Y-109559698D01*
X156090301Y-109738327D01*
X156323690Y-109835000D01*
X156539250Y-109835000D01*
X156698000Y-109676250D01*
X156698000Y-108727000D01*
X156952000Y-108727000D01*
X156952000Y-109676250D01*
X157110750Y-109835000D01*
X157326310Y-109835000D01*
X157559699Y-109738327D01*
X157738327Y-109559698D01*
X157835000Y-109326309D01*
X157835000Y-108885750D01*
X157676250Y-108727000D01*
X156952000Y-108727000D01*
X156698000Y-108727000D01*
X155973750Y-108727000D01*
X155815000Y-108885750D01*
X129460000Y-108885750D01*
X129460000Y-107864873D01*
X154014812Y-107864873D01*
X154179646Y-108263800D01*
X154484595Y-108569282D01*
X154883233Y-108734811D01*
X155314873Y-108735188D01*
X155713800Y-108570354D01*
X155892608Y-108391858D01*
X155973750Y-108473000D01*
X156698000Y-108473000D01*
X156698000Y-108453000D01*
X156952000Y-108453000D01*
X156952000Y-108473000D01*
X157676250Y-108473000D01*
X157835000Y-108314250D01*
X157835000Y-107873691D01*
X157738327Y-107640302D01*
X157736957Y-107638932D01*
X157796431Y-107551890D01*
X157847440Y-107300000D01*
X157847440Y-106100000D01*
X157803162Y-105864683D01*
X157664090Y-105648559D01*
X157451890Y-105503569D01*
X157200000Y-105452560D01*
X156450000Y-105452560D01*
X156214683Y-105496838D01*
X155998559Y-105635910D01*
X155922313Y-105747500D01*
X155100000Y-105747500D01*
X154735494Y-105820005D01*
X154426481Y-106026481D01*
X154220005Y-106335494D01*
X154147500Y-106700000D01*
X154147500Y-107114593D01*
X154015189Y-107433233D01*
X154014812Y-107864873D01*
X129460000Y-107864873D01*
X129460000Y-102919931D01*
X129468539Y-102877000D01*
X163627750Y-102877000D01*
X163773750Y-103023000D01*
X163773750Y-103023000D01*
G37*
X163773750Y-103023000D02*
X163963818Y-103023000D01*
X163998110Y-103046431D01*
X164250000Y-103097440D01*
X167250000Y-103097440D01*
X167485317Y-103053162D01*
X167532190Y-103023000D01*
X167726250Y-103023000D01*
X167839250Y-102910000D01*
X168240000Y-102910000D01*
X168240000Y-107087537D01*
X168207808Y-107119673D01*
X168065162Y-107463201D01*
X168064838Y-107835167D01*
X168206883Y-108178943D01*
X168417572Y-108390000D01*
X167839250Y-108390000D01*
X167726250Y-108277000D01*
X167536182Y-108277000D01*
X167501890Y-108253569D01*
X167250000Y-108202560D01*
X164250000Y-108202560D01*
X164014683Y-108246838D01*
X163967810Y-108277000D01*
X163773750Y-108277000D01*
X163615000Y-108435750D01*
X163615000Y-108576309D01*
X163643870Y-108646007D01*
X163602560Y-108850000D01*
X163602560Y-109450000D01*
X163641858Y-109658850D01*
X163615000Y-109723691D01*
X163615000Y-109864250D01*
X163773750Y-110023000D01*
X163963818Y-110023000D01*
X163998110Y-110046431D01*
X164250000Y-110097440D01*
X167250000Y-110097440D01*
X167485317Y-110053162D01*
X167532190Y-110023000D01*
X167726250Y-110023000D01*
X167839250Y-109910000D01*
X170000000Y-109910000D01*
X170240000Y-109862261D01*
X170240000Y-110390000D01*
X167839250Y-110390000D01*
X167726250Y-110277000D01*
X167536182Y-110277000D01*
X167501890Y-110253569D01*
X167250000Y-110202560D01*
X164250000Y-110202560D01*
X164014683Y-110246838D01*
X163967810Y-110277000D01*
X163773750Y-110277000D01*
X163615000Y-110435750D01*
X163615000Y-110576309D01*
X163643870Y-110646007D01*
X163602560Y-110850000D01*
X163602560Y-111450000D01*
X163641858Y-111658850D01*
X163615000Y-111723691D01*
X163615000Y-111864250D01*
X163773750Y-112023000D01*
X163963818Y-112023000D01*
X163998110Y-112046431D01*
X164250000Y-112097440D01*
X167250000Y-112097440D01*
X167485317Y-112053162D01*
X167532190Y-112023000D01*
X167726250Y-112023000D01*
X167839250Y-111910000D01*
X171000000Y-111910000D01*
X171290839Y-111852148D01*
X171465000Y-111735778D01*
X171465000Y-112390000D01*
X167839250Y-112390000D01*
X167726250Y-112277000D01*
X167536182Y-112277000D01*
X167501890Y-112253569D01*
X167250000Y-112202560D01*
X164250000Y-112202560D01*
X164014683Y-112246838D01*
X163967810Y-112277000D01*
X163773750Y-112277000D01*
X163627750Y-112423000D01*
X138827091Y-112423000D01*
X138352046Y-111947954D01*
X138121705Y-111794046D01*
X137850000Y-111740000D01*
X136850000Y-111740000D01*
X136781416Y-111753642D01*
X136634950Y-111768866D01*
X136634945Y-111768868D01*
X136634942Y-111768868D01*
X136495671Y-111826557D01*
X136379010Y-111874880D01*
X136379008Y-111874882D01*
X136379003Y-111874884D01*
X136314118Y-111918239D01*
X136216180Y-112016180D01*
X136118239Y-112114118D01*
X136074884Y-112179002D01*
X136074881Y-112179009D01*
X136074880Y-112179010D01*
X136051557Y-112235317D01*
X135973815Y-112423000D01*
X135427092Y-112423000D01*
X134352046Y-111347954D01*
X134121705Y-111194046D01*
X133850000Y-111140000D01*
X129519931Y-111140000D01*
X129469943Y-111130057D01*
X129460000Y-111080069D01*
X129460000Y-109935167D01*
X158564838Y-109935167D01*
X158706883Y-110278943D01*
X158969673Y-110542192D01*
X159313201Y-110684838D01*
X159685167Y-110685162D01*
X160028943Y-110543117D01*
X160292192Y-110280327D01*
X160434838Y-109936799D01*
X160435162Y-109564833D01*
X160324328Y-109296593D01*
X160469673Y-109442192D01*
X160813201Y-109584838D01*
X161185167Y-109585162D01*
X161528943Y-109443117D01*
X161792192Y-109180327D01*
X161934838Y-108836799D01*
X161934962Y-108694005D01*
X162033233Y-108734811D01*
X162464873Y-108735188D01*
X162863800Y-108570354D01*
X163169282Y-108265405D01*
X163236926Y-108102500D01*
X165725000Y-108102500D01*
X165750438Y-108097440D01*
X167250000Y-108097440D01*
X167485317Y-108053162D01*
X167532190Y-108023000D01*
X167726250Y-108023000D01*
X167885000Y-107864250D01*
X167885000Y-107723691D01*
X167856130Y-107653993D01*
X167897440Y-107450000D01*
X167897440Y-106850000D01*
X167858426Y-106642658D01*
X167897440Y-106450000D01*
X167897440Y-105850000D01*
X167858142Y-105641150D01*
X167885000Y-105576309D01*
X167885000Y-105435750D01*
X167726250Y-105277000D01*
X167536182Y-105277000D01*
X167501890Y-105253569D01*
X167250000Y-105202560D01*
X164250000Y-105202560D01*
X164014683Y-105246838D01*
X163967810Y-105277000D01*
X163773750Y-105277000D01*
X163660750Y-105390000D01*
X161000000Y-105390000D01*
X160709161Y-105447852D01*
X160462599Y-105612599D01*
X160297852Y-105859161D01*
X160260000Y-106049454D01*
X160260000Y-104910000D01*
X163660750Y-104910000D01*
X163773750Y-105023000D01*
X163963818Y-105023000D01*
X163998110Y-105046431D01*
X164250000Y-105097440D01*
X167250000Y-105097440D01*
X167485317Y-105053162D01*
X167532190Y-105023000D01*
X167726250Y-105023000D01*
X167885000Y-104864250D01*
X167885000Y-104723691D01*
X167856130Y-104653993D01*
X167897440Y-104450000D01*
X167897440Y-103850000D01*
X167858142Y-103641150D01*
X167885000Y-103576309D01*
X167885000Y-103435750D01*
X167726250Y-103277000D01*
X167536182Y-103277000D01*
X167501890Y-103253569D01*
X167250000Y-103202560D01*
X164250000Y-103202560D01*
X164014683Y-103246838D01*
X163967810Y-103277000D01*
X163773750Y-103277000D01*
X163660750Y-103390000D01*
X159500000Y-103390000D01*
X159209161Y-103447852D01*
X158962599Y-103612599D01*
X158797852Y-103859161D01*
X158740000Y-104150000D01*
X158740000Y-109187537D01*
X158707808Y-109219673D01*
X158565162Y-109563201D01*
X158564838Y-109935167D01*
X129460000Y-109935167D01*
X129460000Y-108885750D01*
X155815000Y-108885750D01*
X155815000Y-109326309D01*
X155911673Y-109559698D01*
X156090301Y-109738327D01*
X156323690Y-109835000D01*
X156539250Y-109835000D01*
X156698000Y-109676250D01*
X156698000Y-108727000D01*
X156952000Y-108727000D01*
X156952000Y-109676250D01*
X157110750Y-109835000D01*
X157326310Y-109835000D01*
X157559699Y-109738327D01*
X157738327Y-109559698D01*
X157835000Y-109326309D01*
X157835000Y-108885750D01*
X157676250Y-108727000D01*
X156952000Y-108727000D01*
X156698000Y-108727000D01*
X155973750Y-108727000D01*
X155815000Y-108885750D01*
X129460000Y-108885750D01*
X129460000Y-107864873D01*
X154014812Y-107864873D01*
X154179646Y-108263800D01*
X154484595Y-108569282D01*
X154883233Y-108734811D01*
X155314873Y-108735188D01*
X155713800Y-108570354D01*
X155892608Y-108391858D01*
X155973750Y-108473000D01*
X156698000Y-108473000D01*
X156698000Y-108453000D01*
X156952000Y-108453000D01*
X156952000Y-108473000D01*
X157676250Y-108473000D01*
X157835000Y-108314250D01*
X157835000Y-107873691D01*
X157738327Y-107640302D01*
X157736957Y-107638932D01*
X157796431Y-107551890D01*
X157847440Y-107300000D01*
X157847440Y-106100000D01*
X157803162Y-105864683D01*
X157664090Y-105648559D01*
X157451890Y-105503569D01*
X157200000Y-105452560D01*
X156450000Y-105452560D01*
X156214683Y-105496838D01*
X155998559Y-105635910D01*
X155922313Y-105747500D01*
X155100000Y-105747500D01*
X154735494Y-105820005D01*
X154426481Y-106026481D01*
X154220005Y-106335494D01*
X154147500Y-106700000D01*
X154147500Y-107114593D01*
X154015189Y-107433233D01*
X154014812Y-107864873D01*
X129460000Y-107864873D01*
X129460000Y-102919931D01*
X129468539Y-102877000D01*
X163627750Y-102877000D01*
X163773750Y-103023000D01*
M02*
